<svg width="35" height="35" viewBox="0 0 35 35" fill="none" xmlns="http://www.w3.org/2000/svg">
<path d="M2.91602 26.25C2.91602 24.6391 4.22185 23.3333 5.83268 23.3333H6.08289C6.85644 23.3333 7.59831 23.6406 8.14529 24.1876C9.28432 25.3266 11.131 25.3266 12.2701 24.1876C12.8171 23.6406 13.5589 23.3333 14.3325 23.3333H14.5827C16.1935 23.3333 17.4993 24.6391 17.4993 26.25V27.7083C17.4993 29.3191 16.1935 30.625 14.5827 30.625H5.83268C4.22185 30.625 2.91602 29.3191 2.91602 27.7083V26.25Z" stroke="#626264" stroke-width="1.5" stroke-linecap="round"/>
<path d="M13.1243 17.5C13.1243 19.1108 11.8185 20.4166 10.2077 20.4166C8.59685 20.4166 7.29102 19.1108 7.29102 17.5C7.29102 15.8891 8.59685 14.5833 10.2077 14.5833C11.8185 14.5833 13.1243 15.8891 13.1243 17.5Z" stroke="#626264" stroke-width="1.5" stroke-linecap="round"/>
<path d="M31.8545 14.2533L31.2148 13.8616L31.2148 13.8616L31.8545 14.2533ZM31.0038 15.6426L31.6434 16.0342L31.6434 16.0342L31.0038 15.6426ZM16.2692 7.62172L15.6296 7.23006L15.6296 7.23006L16.2692 7.62172ZM17.1199 6.23247L17.7596 6.62413L17.7596 6.62413L17.1199 6.23247ZM19.4441 5.64531L19.8027 4.98658L19.8027 4.98658L19.4441 5.64531ZM16.892 9.81305L16.5334 10.4718L16.5334 10.4718L16.892 9.81305ZM28.6796 16.2297L28.321 16.8884L28.321 16.8884L28.6796 16.2297ZM31.2317 12.062L30.8731 12.7207L30.8731 12.7207L31.2317 12.062ZM17.1199 15.6426L16.4803 16.0342L16.4803 16.0342L17.1199 15.6426ZM16.2692 14.2533L16.9089 13.8617L16.9089 13.8617L16.2692 14.2533ZM31.0038 6.23248L31.6434 5.84082L31.6434 5.84082L31.0038 6.23248ZM31.8545 7.62173L31.2148 8.01339L31.2148 8.0134L31.8545 7.62173ZM31.2317 9.81307L31.5903 10.4718L31.5903 10.4718L31.2317 9.81307ZM28.6796 5.64532L29.0382 6.30404L29.0382 6.30404L28.6796 5.64532ZM16.892 12.062L17.2506 12.7207L17.2506 12.7207L16.892 12.062ZM19.4441 16.2297L19.0855 15.571L19.0855 15.571L19.4441 16.2297ZM28.5892 5.69455L28.2306 5.03582L28.2306 5.03582L28.5892 5.69455ZM19.5345 5.69454L19.176 6.35327L19.176 6.35327L19.5345 5.69454ZM28.5892 16.1805L28.9478 15.5218L28.9478 15.5218L28.5892 16.1805ZM19.5345 16.1805L19.8931 16.8392L19.8931 16.8392L19.5345 16.1805ZM23.2112 3.66669H24.9125V2.16669H23.2112V3.66669ZM24.9125 18.2084H23.2112V19.7084H24.9125V18.2084ZM23.2112 18.2084C22.6435 18.2084 22.2598 17.785 22.2598 17.3542H20.7598C20.7598 18.6953 21.8995 19.7084 23.2112 19.7084V18.2084ZM25.8639 17.3542C25.8639 17.785 25.4802 18.2084 24.9125 18.2084V19.7084C26.2242 19.7084 27.3639 18.6953 27.3639 17.3542H25.8639ZM24.9125 3.66669C25.4802 3.66669 25.8639 4.09008 25.8639 4.52085H27.3639C27.3639 3.17972 26.2242 2.16669 24.9125 2.16669V3.66669ZM23.2112 2.16669C21.8995 2.16669 20.7598 3.17972 20.7598 4.52085H22.2598C22.2598 4.09008 22.6435 3.66669 23.2112 3.66669V2.16669ZM31.2148 13.8616L30.3641 15.2509L31.6434 16.0342L32.4941 14.645L31.2148 13.8616ZM16.9089 8.01338L17.7596 6.62413L16.4803 5.84081L15.6296 7.23006L16.9089 8.01338ZM17.7596 6.62413C18.0108 6.21377 18.6055 6.04272 19.0855 6.30403L19.8027 4.98658C18.6552 4.36194 17.1687 4.71665 16.4803 5.84081L17.7596 6.62413ZM17.2506 9.15433C16.7939 8.90575 16.6748 8.3956 16.9089 8.01338L15.6296 7.23006C14.924 8.38237 15.3625 9.8344 16.5334 10.4718L17.2506 9.15433ZM30.3641 15.2509C30.1129 15.6613 29.5182 15.8323 29.0382 15.571L28.321 16.8884C29.4685 17.5131 30.955 17.1584 31.6434 16.0342L30.3641 15.2509ZM32.4941 14.645C33.1997 13.4927 32.7612 12.0406 31.5903 11.4032L30.8731 12.7207C31.3298 12.9693 31.4489 13.4794 31.2148 13.8616L32.4941 14.645ZM17.7596 15.2509L16.9089 13.8617L15.6296 14.645L16.4803 16.0342L17.7596 15.2509ZM30.3641 6.62415L31.2148 8.01339L32.4941 7.23007L31.6434 5.84082L30.3641 6.62415ZM31.2148 8.0134C31.4489 8.39561 31.3298 8.90576 30.8731 9.15434L31.5903 10.4718C32.7612 9.83441 33.1997 8.38238 32.4941 7.23007L31.2148 8.0134ZM29.0382 6.30404C29.5182 6.04273 30.1129 6.21378 30.3641 6.62415L31.6434 5.84082C30.955 4.71667 29.4685 4.36195 28.321 4.98659L29.0382 6.30404ZM16.9089 13.8617C16.6748 13.4794 16.7939 12.9693 17.2506 12.7207L16.5334 11.4033C15.3625 12.0406 14.924 13.4927 15.6296 14.645L16.9089 13.8617ZM16.4803 16.0342C17.1687 17.1584 18.6552 17.5131 19.8027 16.8885L19.0855 15.571C18.6055 15.8323 18.0108 15.6613 17.7596 15.2509L16.4803 16.0342ZM28.9478 6.35327L29.0382 6.30404L28.321 4.98659L28.2306 5.03582L28.9478 6.35327ZM19.0855 6.30403L19.176 6.35327L19.8931 5.03582L19.8027 4.98658L19.0855 6.30403ZM29.0382 15.571L28.9478 15.5218L28.2306 16.8392L28.321 16.8884L29.0382 15.571ZM19.176 15.5218L19.0855 15.571L19.8027 16.8885L19.8931 16.8392L19.176 15.5218ZM16.5334 10.4718C16.9024 10.6726 16.9024 11.2024 16.5334 11.4033L17.2506 12.7207C18.6634 11.9517 18.6634 9.92338 17.2506 9.15433L16.5334 10.4718ZM19.8931 16.8392C20.2838 16.6265 20.7598 16.9094 20.7598 17.3542H22.2598C22.2598 15.7713 20.5662 14.765 19.176 15.5218L19.8931 16.8392ZM27.3639 17.3542C27.3639 16.9093 27.8399 16.6265 28.2306 16.8392L28.9478 15.5218C27.5575 14.765 25.8639 15.7713 25.8639 17.3542H27.3639ZM31.5903 11.4032C31.2213 11.2024 31.2213 10.6727 31.5903 10.4718L30.8731 9.15434C29.4604 9.92339 29.4604 11.9516 30.8731 12.7207L31.5903 11.4032ZM19.176 6.35327C20.5662 7.11005 22.2598 6.10371 22.2598 4.52085H20.7598C20.7598 4.96568 20.2838 5.24849 19.8931 5.03582L19.176 6.35327ZM28.2306 5.03582C27.8399 5.2485 27.3639 4.96569 27.3639 4.52085H25.8639C25.8639 6.10372 27.5575 7.11006 28.9478 6.35327L28.2306 5.03582ZM25.9855 10.9375C25.9855 11.9999 25.1242 12.8611 24.0619 12.8611V14.3611C25.9527 14.3611 27.4855 12.8283 27.4855 10.9375H25.9855ZM24.0619 12.8611C22.9995 12.8611 22.1382 11.9999 22.1382 10.9375H20.6382C20.6382 12.8283 22.171 14.3611 24.0619 14.3611V12.8611ZM22.1382 10.9375C22.1382 9.87514 22.9995 9.01391 24.0619 9.01391V7.51391C22.171 7.51391 20.6382 9.04671 20.6382 10.9375H22.1382ZM24.0619 9.01391C25.1242 9.01391 25.9855 9.87514 25.9855 10.9375H27.4855C27.4855 9.04671 25.9527 7.51391 24.0619 7.51391V9.01391Z" fill="#626264"/>
</svg>
