<svg width="24" height="24" viewBox="0 0 24 24" fill="none" xmlns="http://www.w3.org/2000/svg">
<path d="M2 18C2 16.8954 2.89543 16 4 16H4.17157C4.70201 16 5.21071 16.2107 5.58579 16.5858C6.36683 17.3668 7.63317 17.3668 8.41421 16.5858C8.78929 16.2107 9.29799 16 9.82843 16H10C11.1046 16 12 16.8954 12 18V19C12 20.1046 11.1046 21 10 21H4C2.89543 21 2 20.1046 2 19V18Z" stroke="#FFFFFF" stroke-width="1.5" stroke-linecap="round"/>
<path d="M9 12C9 13.1046 8.10457 14 7 14C5.89543 14 5 13.1046 5 12C5 10.8954 5.89543 10 7 10C8.10457 10 9 10.8954 9 12Z" stroke="#FFFFFF" stroke-width="1.5" stroke-linecap="round"/>
<path d="M21.8435 9.77368L21.2039 9.38202V9.38202L21.8435 9.77368ZM21.2602 10.7263L21.8998 11.118L21.8998 11.118L21.2602 10.7263ZM11.1565 5.22631L10.5169 4.83465H10.5169L11.1565 5.22631ZM11.7398 4.27368L12.3794 4.66534H12.3794L11.7398 4.27368ZM13.3335 3.87105L13.6921 3.21233L13.6921 3.21233L13.3335 3.87105ZM11.5835 6.72894L11.2249 7.38766H11.2249L11.5835 6.72894ZM19.6665 11.1289L19.3079 11.7877L19.3079 11.7877L19.6665 11.1289ZM21.4165 8.27105L21.0579 8.92978H21.0579L21.4165 8.27105ZM11.7398 10.7263L11.1002 11.118H11.1002L11.7398 10.7263ZM11.1565 9.77369L11.7961 9.38203L11.7961 9.38203L11.1565 9.77369ZM21.2602 4.27369L21.8998 3.88203L21.8998 3.88203L21.2602 4.27369ZM21.8435 5.22632L21.2039 5.61798V5.61798L21.8435 5.22632ZM21.4165 6.72895L21.7751 7.38767L21.4165 6.72895ZM19.6665 3.87106L20.025 4.52979L19.6665 3.87106ZM11.5835 8.27106L11.9421 8.92979L11.9421 8.92979L11.5835 8.27106ZM13.3335 11.1289L12.975 10.4702L12.975 10.4702L13.3335 11.1289ZM19.6045 3.90482L19.2459 3.24609V3.24609L19.6045 3.90482ZM13.3956 3.90481L13.037 4.56354L13.037 4.56354L13.3956 3.90481ZM19.6045 11.0952L19.963 10.4365L19.963 10.4365L19.6045 11.0952ZM13.3956 11.0952L13.7541 11.7539L13.7541 11.7539L13.3956 11.0952ZM15.9167 2.75H17.0833V1.25H15.9167V2.75ZM17.0833 12.25H15.9167V13.75H17.0833V12.25ZM15.9167 12.25C15.6444 12.25 15.5 12.0523 15.5 11.9H14C14 12.9627 14.9003 13.75 15.9167 13.75V12.25ZM17.5 11.9C17.5 12.0523 17.3556 12.25 17.0833 12.25V13.75C18.0997 13.75 19 12.9627 19 11.9H17.5ZM17.0833 2.75C17.3556 2.75 17.5 2.94767 17.5 3.1H19C19 2.03731 18.0997 1.25 17.0833 1.25V2.75ZM15.9167 1.25C14.9003 1.25 14 2.03731 14 3.1H15.5C15.5 2.94767 15.6444 2.75 15.9167 2.75V1.25ZM21.2039 9.38202L20.6206 10.3346L21.8998 11.118L22.4831 10.1653L21.2039 9.38202ZM11.7961 5.61797L12.3794 4.66534L11.1002 3.88202L10.5169 4.83465L11.7961 5.61797ZM12.3794 4.66534C12.4831 4.49612 12.7507 4.40769 12.975 4.52978L13.6921 3.21233C12.8004 2.72691 11.6409 2.999 11.1002 3.88202L12.3794 4.66534ZM11.9421 6.07021C11.7412 5.96086 11.7097 5.75905 11.7961 5.61797L10.5169 4.83465C9.95894 5.74581 10.3098 6.88951 11.2249 7.38766L11.9421 6.07021ZM20.6206 10.3346C20.5169 10.5039 20.2493 10.5923 20.025 10.4702L19.3079 11.7877C20.1996 12.2731 21.3591 12.001 21.8998 11.118L20.6206 10.3346ZM22.4831 10.1653C23.0411 9.25418 22.6902 8.11048 21.7751 7.61233L21.0579 8.92978C21.2588 9.03914 21.2903 9.24094 21.2039 9.38202L22.4831 10.1653ZM12.3794 10.3347L11.7961 9.38203L10.5169 10.1654L11.1002 11.118L12.3794 10.3347ZM20.6206 4.66535L21.2039 5.61798L22.4831 4.83466L21.8998 3.88203L20.6206 4.66535ZM21.2039 5.61798C21.2903 5.75906 21.2588 5.96086 21.0579 6.07022L21.7751 7.38767C22.6902 6.88951 23.0411 5.74582 22.4831 4.83466L21.2039 5.61798ZM20.025 4.52979C20.2493 4.40769 20.5169 4.49613 20.6206 4.66535L21.8998 3.88203C21.3591 2.99901 20.1996 2.72692 19.3079 3.21234L20.025 4.52979ZM11.7961 9.38203C11.7097 9.24095 11.7412 9.03914 11.9421 8.92979L11.2249 7.61234C10.3098 8.11049 9.95894 9.25418 10.5169 10.1654L11.7961 9.38203ZM11.1002 11.118C11.6409 12.001 12.8004 12.2731 13.6921 11.7877L12.975 10.4702C12.7507 10.5923 12.4831 10.5039 12.3794 10.3347L11.1002 11.118ZM19.963 4.56354L20.025 4.52979L19.3079 3.21234L19.2459 3.24609L19.963 4.56354ZM12.975 4.52978L13.037 4.56354L13.7541 3.24609L13.6921 3.21233L12.975 4.52978ZM20.025 10.4702L19.963 10.4365L19.2459 11.7539L19.3079 11.7877L20.025 10.4702ZM13.037 10.4365L12.975 10.4702L13.6921 11.7877L13.7541 11.7539L13.037 10.4365ZM11.2249 7.38766C11.3139 7.43611 11.314 7.56389 11.2249 7.61234L11.9421 8.92979C13.0749 8.31315 13.0749 6.68685 11.9421 6.07021L11.2249 7.38766ZM13.7541 11.7539C13.865 11.6936 14 11.7738 14 11.9H15.5C15.5 10.6358 14.1473 9.83203 13.037 10.4365L13.7541 11.7539ZM19 11.9C19 11.7738 19.135 11.6936 19.2459 11.7539L19.963 10.4365C18.8527 9.83202 17.5 10.6358 17.5 11.9H19ZM21.7751 7.61233C21.6861 7.56388 21.6861 7.43612 21.7751 7.38767L21.0579 6.07022C19.9251 6.68686 19.9251 8.31314 21.0579 8.92978L21.7751 7.61233ZM13.037 4.56354C14.1473 5.16798 15.5 4.36422 15.5 3.1H14C14 3.22619 13.865 3.30642 13.7541 3.24609L13.037 4.56354ZM19.2459 3.24609C19.135 3.30643 19 3.2262 19 3.1H17.5C17.5 4.36422 18.8527 5.16798 19.963 4.56354L19.2459 3.24609ZM17.5833 7.5C17.5833 8.09831 17.0983 8.58333 16.5 8.58333V10.0833C17.9267 10.0833 19.0833 8.92674 19.0833 7.5H17.5833ZM16.5 8.58333C15.9017 8.58333 15.4167 8.09831 15.4167 7.5H13.9167C13.9167 8.92674 15.0733 10.0833 16.5 10.0833V8.58333ZM15.4167 7.5C15.4167 6.90169 15.9017 6.41667 16.5 6.41667V4.91667C15.0733 4.91667 13.9167 6.07326 13.9167 7.5H15.4167ZM16.5 6.41667C17.0983 6.41667 17.5833 6.90169 17.5833 7.5H19.0833C19.0833 6.07326 17.9267 4.91667 16.5 4.91667V6.41667Z" fill="#FFFFFF"/>
</svg>
