<svg width="35" height="35" viewBox="0 0 35 35" fill="none" xmlns="http://www.w3.org/2000/svg">
<path fill-rule="evenodd" clip-rule="evenodd" d="M12.0244 7.50704C13.8591 6.28392 16.269 7.40525 16.6265 9.46472H20.2041C21.8549 9.46472 23.1931 10.803 23.1931 12.4538C23.1931 12.904 22.8282 13.269 22.3779 13.269C21.9277 13.269 21.5627 12.904 21.5627 12.4538C21.5627 11.7034 20.9544 11.0951 20.2041 11.0951H16.6715V24.6818H20.2041C20.9544 24.6818 21.5627 24.0735 21.5627 23.3231C21.5627 22.8729 21.9277 22.5079 22.3779 22.5079C22.8282 22.5079 23.1931 22.8729 23.1931 23.3231C23.1931 24.9739 21.8549 26.3122 20.2041 26.3122H16.6265C16.269 28.3716 13.8591 29.493 12.0244 28.2699L9.85056 26.8206C9.01901 26.2662 8.51953 25.333 8.51953 24.3336V11.4433C8.51953 10.4439 9.01901 9.51065 9.85056 8.95628L12.0244 7.50704ZM23.975 20.3492C23.6567 20.0308 23.6567 19.5147 23.975 19.1963L24.7573 18.4141L19.1168 18.4141C18.6666 18.4141 18.3016 18.0491 18.3016 17.5989C18.3016 17.1487 18.6666 16.7837 19.1168 16.7837L24.7573 16.7837L23.975 16.0015C23.6567 15.6831 23.6567 15.1669 23.975 14.8486C24.2934 14.5302 24.8095 14.5302 25.1279 14.8486L26.5332 16.2539C27.276 16.9967 27.276 18.2011 26.5332 18.9439L25.1279 20.3492C24.8095 20.6675 24.2934 20.6675 23.975 20.3492Z" fill="#FF1010"/>
</svg>
