<svg width="20" height="22" viewBox="0 0 20 22" fill="none" xmlns="http://www.w3.org/2000/svg">
<path fill-rule="evenodd" clip-rule="evenodd" d="M4.02248 0.507039C5.85716 -0.716082 8.26707 0.405251 8.6245 2.46472H12.2021C13.8529 2.46472 15.1912 3.80297 15.1912 5.45379C15.1912 5.90401 14.8262 6.26899 14.376 6.26899C13.9258 6.26899 13.5608 5.90401 13.5608 5.45379C13.5608 4.70341 12.9525 4.09512 12.2021 4.09512H8.66958V17.6818H12.2021C12.9525 17.6818 13.5608 17.0735 13.5608 16.3231C13.5608 15.8729 13.9258 15.5079 14.376 15.5079C14.8262 15.5079 15.1912 15.8729 15.1912 16.3231C15.1912 17.9739 13.8529 19.3122 12.2021 19.3122H8.6245C8.26707 21.3716 5.85716 22.493 4.02248 21.2699L1.84861 19.8206C1.01705 19.2662 0.517578 18.333 0.517578 17.3336V4.44334C0.517578 3.44393 1.01705 2.51065 1.84861 1.95628L4.02248 0.507039ZM15.9731 13.3492C15.6547 13.0308 15.6547 12.5147 15.9731 12.1963L16.7553 11.4141L11.1148 11.4141C10.6646 11.4141 10.2996 11.0491 10.2996 10.5989C10.2996 10.1487 10.6646 9.78368 11.1148 9.78368L16.7553 9.78368L15.9731 9.00145C15.6547 8.68309 15.6547 8.16694 15.9731 7.84858C16.2914 7.53023 16.8076 7.53023 17.1259 7.84858L18.5312 9.25387C19.2741 9.9967 19.2741 11.2011 18.5312 11.9439L17.1259 13.3492C16.8076 13.6675 16.2914 13.6675 15.9731 13.3492Z" fill="#FF1010"/>
</svg>
