<svg width="14" height="16" viewBox="0 0 14 16" fill="none" xmlns="http://www.w3.org/2000/svg">
<path fill-rule="evenodd" clip-rule="evenodd" d="M3.24418 1.14768C4.50225 0.308973 6.15476 1.07789 6.39985 2.49009H8.85307C9.98506 2.49009 10.9027 3.40775 10.9027 4.53974C10.9027 4.84846 10.6524 5.09873 10.3437 5.09873C10.035 5.09873 9.78473 4.84846 9.78473 4.53974C9.78473 4.0252 9.36761 3.60808 8.85307 3.60808H6.43076V12.9247H8.85307C9.36761 12.9247 9.78473 12.5075 9.78473 11.993C9.78473 11.6843 10.035 11.434 10.3437 11.434C10.6524 11.434 10.9027 11.6843 10.9027 11.993C10.9027 13.125 9.98506 14.0426 8.85307 14.0426H6.39985C6.15476 15.4548 4.50224 16.2238 3.24418 15.385L1.75353 14.3913C1.18332 14.0111 0.84082 13.3712 0.84082 12.6859V3.84686C0.84082 3.16155 1.18332 2.52159 1.75353 2.14145L3.24418 1.14768ZM11.4389 9.95373C11.2206 9.73542 11.2206 9.38149 11.4389 9.16319L11.9753 8.6268L8.10751 8.6268C7.79879 8.6268 7.54852 8.37653 7.54852 8.06781C7.54852 7.75908 7.79879 7.50881 8.10751 7.50881L11.9753 7.50881L11.4389 6.97242C11.2206 6.75412 11.2206 6.40019 11.4389 6.18189C11.6572 5.96358 12.0111 5.96358 12.2294 6.18189L13.193 7.14551C13.7024 7.65488 13.7024 8.48073 13.193 8.9901L12.2294 9.95373C12.0111 10.172 11.6572 10.172 11.4389 9.95373Z" fill="#F7F9FB"/>
</svg>
