<svg width="431" height="176" viewBox="0 0 431 176" fill="none" xmlns="http://www.w3.org/2000/svg">
<path d="M428.912 175.137H2.15579C1.22427 175.137 0.40918 174.322 0.40918 173.391C0.40918 172.459 1.22427 171.645 2.15579 171.645H428.796C429.727 171.645 430.542 172.459 430.542 173.391C430.659 174.439 429.843 175.137 428.912 175.137Z" fill="#C1DFF7"/>
<g opacity="0.58">
<path d="M138.042 84.2149V70.9431C138.042 70.1282 137.343 69.4297 136.528 69.4297H132.103C131.521 69.4297 130.939 69.0804 130.706 68.4983C130.473 67.9162 130.589 67.2177 131.055 66.752L134.199 63.6087C134.781 63.0266 134.781 61.9789 134.199 61.3968L124.767 51.9668C124.185 51.3847 123.137 51.3847 122.555 51.9668L119.411 55.1101C118.945 55.5758 118.247 55.6922 117.664 55.4594C117.082 55.2266 116.733 54.6445 116.733 54.0624V49.6385C116.733 48.8235 116.034 48.125 115.219 48.125H101.945C101.13 48.125 100.431 48.8235 100.431 49.6385V54.0624C100.431 54.6445 100.082 55.2266 99.4997 55.4594C98.9175 55.6922 98.2188 55.5758 97.7531 55.1101L94.6092 51.9668C94.027 51.3847 92.979 51.3847 92.3968 51.9668L82.9651 61.3968C82.3829 61.9789 82.3829 63.0266 82.9651 63.6087L86.109 66.752C86.5747 67.2177 86.6912 67.9162 86.4583 68.4983C86.2254 69.0804 85.6432 69.4297 85.061 69.4297H80.4034C79.5883 69.4297 78.8896 70.1282 78.8896 70.9431V84.2149C78.8896 85.0298 79.5883 85.7283 80.4034 85.7283H84.8281C85.4103 85.7283 85.9925 86.0776 86.2254 86.6597C86.4583 87.2418 86.3419 87.9403 85.8761 88.406L82.7322 91.5493C82.15 92.1314 82.15 93.1791 82.7322 93.7612L92.1639 103.191C92.7461 103.773 93.7941 103.773 94.3763 103.191L97.5202 100.048C97.986 99.5822 98.6846 99.4658 99.2668 99.6986C99.849 99.9314 100.198 100.514 100.198 101.096V105.636C100.198 106.451 100.897 107.149 101.712 107.149H114.986C115.801 107.149 116.5 106.451 116.5 105.636V101.212C116.5 100.63 116.849 100.048 117.432 99.815C118.014 99.5822 118.712 99.6986 119.178 100.164L122.322 103.308C122.904 103.89 123.952 103.89 124.534 103.308L133.966 93.8777C134.548 93.2956 134.548 92.2478 133.966 91.6657L130.822 88.5224C130.357 88.0567 130.24 87.3582 130.473 86.7761C130.706 86.194 131.288 85.8447 131.87 85.8447H136.295C137.343 85.7283 138.042 85.0298 138.042 84.2149ZM123.021 77.579C123.021 85.6119 116.5 92.1314 108.466 92.1314C100.431 92.1314 93.9105 85.6119 93.9105 77.579C93.9105 69.5461 100.431 63.0266 108.466 63.0266C116.5 63.0266 123.021 69.5461 123.021 77.579Z" fill="white"/>
<path d="M360.678 122.049H370.342C370.925 122.049 371.507 121.584 371.507 120.885V117.625C371.507 117.16 371.74 116.694 372.206 116.578C372.671 116.345 373.137 116.461 373.486 116.81L375.815 119.139C376.281 119.604 376.98 119.604 377.445 119.139L384.315 112.27C384.781 111.804 384.781 111.106 384.315 110.64L381.987 108.312C381.637 107.963 381.521 107.497 381.754 107.031C381.987 106.566 382.336 106.333 382.802 106.333H386.062C386.644 106.333 387.226 105.867 387.226 105.169V95.5057C387.226 94.9237 386.761 94.3416 386.062 94.3416H382.802C382.336 94.3416 381.87 94.1087 381.754 93.643C381.521 93.1774 381.637 92.7117 381.987 92.3624L384.315 90.0341C384.781 89.5684 384.781 88.8699 384.315 88.4042L377.445 81.5355C376.98 81.0698 376.281 81.0698 375.815 81.5355L373.486 83.8639C373.137 84.2131 372.671 84.3295 372.206 84.0967C371.74 83.8638 371.507 83.5146 371.507 83.0489V79.7892C371.507 79.2071 371.041 78.625 370.342 78.625H360.678C360.096 78.625 359.513 79.0907 359.513 79.7892V83.0489C359.513 83.5146 359.281 83.9803 358.815 84.0967C358.349 84.3295 357.883 84.2131 357.534 83.8639L355.205 81.5355C354.739 81.0698 354.041 81.0698 353.575 81.5355L346.705 88.4042C346.239 88.8699 346.239 89.5684 346.705 90.0341L349.034 92.3624C349.383 92.7117 349.5 93.1774 349.267 93.643C349.034 94.1087 348.684 94.3416 348.219 94.3416H344.958C344.376 94.3416 343.794 94.8072 343.794 95.5057V105.169C343.794 105.751 344.26 106.333 344.958 106.333H348.219C348.684 106.333 349.15 106.566 349.267 107.031C349.5 107.497 349.383 107.963 349.034 108.312L346.705 110.64C346.239 111.106 346.239 111.804 346.705 112.27L353.575 119.139C354.041 119.604 354.739 119.604 355.205 119.139L357.534 116.81C357.883 116.461 358.349 116.345 358.815 116.578C359.281 116.81 359.513 117.16 359.513 117.625V120.885C359.513 121.584 360.096 122.049 360.678 122.049ZM365.568 111.106C359.63 111.106 354.972 106.333 354.972 100.512C354.972 94.5744 359.746 89.9176 365.568 89.9176C371.507 89.9176 376.165 94.6908 376.165 100.512C376.165 106.333 371.39 111.106 365.568 111.106Z" fill="white"/>
<path d="M311.19 137.07H316.546C316.896 137.07 317.129 136.837 317.129 136.488V134.741C317.129 134.509 317.245 134.276 317.478 134.159C317.711 134.043 317.944 134.159 318.177 134.276L319.457 135.556C319.69 135.789 320.156 135.789 320.389 135.556L324.231 131.715C324.464 131.482 324.464 131.016 324.231 130.783L322.951 129.503C322.718 129.27 322.718 129.037 322.834 128.804C322.951 128.571 323.183 128.455 323.416 128.455H325.163C325.512 128.455 325.745 128.222 325.745 127.873V122.517C325.745 122.168 325.512 121.935 325.163 121.935H323.416C323.183 121.935 322.951 121.819 322.834 121.586C322.718 121.353 322.834 121.12 322.951 120.888L324.231 119.607C324.464 119.374 324.464 118.908 324.231 118.676L320.389 114.834C320.156 114.601 319.69 114.601 319.457 114.834L318.177 116.114C317.944 116.347 317.711 116.347 317.478 116.231C317.245 116.114 317.129 115.882 317.129 115.649V113.902C317.129 113.553 316.896 113.32 316.546 113.32H311.19C310.841 113.32 310.608 113.553 310.608 113.902V115.649C310.608 115.882 310.491 116.114 310.259 116.231C310.026 116.347 309.793 116.231 309.56 116.114L308.279 114.834C308.046 114.601 307.58 114.601 307.348 114.834L303.505 118.676C303.272 118.908 303.272 119.374 303.505 119.607L304.786 120.888C305.019 121.12 305.019 121.353 304.902 121.586C304.786 121.819 304.553 121.935 304.32 121.935H302.573C302.224 121.935 301.991 122.168 301.991 122.517V127.873C301.991 128.222 302.224 128.455 302.573 128.455H304.32C304.553 128.455 304.786 128.571 304.902 128.804C305.019 129.037 304.902 129.27 304.786 129.503L303.505 130.783C303.272 131.016 303.272 131.482 303.505 131.715L307.348 135.556C307.58 135.789 308.046 135.789 308.279 135.556L309.56 134.276C309.793 134.043 310.026 134.043 310.259 134.159C310.491 134.276 310.608 134.509 310.608 134.741V136.488C310.608 136.721 310.841 137.07 311.19 137.07ZM313.868 130.9C310.608 130.9 307.93 128.222 307.93 124.962C307.93 121.702 310.608 119.025 313.868 119.025C317.129 119.025 319.807 121.702 319.807 124.962C319.807 128.338 317.129 130.9 313.868 130.9Z" fill="white"/>
<path d="M24.8619 82.5846H30.3346C30.684 82.5846 30.9169 82.3518 30.9169 82.0025V80.2563C30.9169 80.0234 31.0333 79.7906 31.2662 79.6742C31.4991 79.5577 31.7319 79.6742 31.9648 79.7906L33.2457 81.0712C33.4786 81.304 33.9443 81.304 34.1772 81.0712L38.0197 77.2294C38.2526 76.9965 38.2526 76.5309 38.0197 76.298L36.7389 75.0174C36.506 74.7846 36.506 74.5517 36.6225 74.3189C36.7389 74.086 36.9718 73.9696 37.2047 73.9696H38.9513C39.3006 73.9696 39.5335 73.7368 39.5335 73.3875V68.0323C39.5335 67.683 39.3006 67.4502 38.9513 67.4502H37.2047C36.9718 67.4502 36.7389 67.3338 36.6225 67.1009C36.506 66.8681 36.6225 66.6352 36.7389 66.4024L38.0197 65.1218C38.2526 64.889 38.2526 64.4233 38.0197 64.1904L34.1772 60.2322C33.9443 59.9994 33.4786 59.9994 33.2457 60.2322L31.9648 61.5128C31.7319 61.7456 31.4991 61.7456 31.2662 61.6292C31.0333 61.5128 30.9169 61.28 30.9169 61.0471V59.3008C30.9169 58.9516 30.684 58.7188 30.3346 58.7188H24.9784C24.629 58.7188 24.3962 58.9516 24.3962 59.3008V61.0471C24.3962 61.28 24.2797 61.5128 24.0468 61.6292C23.8139 61.7456 23.5811 61.6292 23.3482 61.5128L21.9509 60.2322C21.718 59.9994 21.2523 59.9994 21.0194 60.2322L17.1768 64.074C16.9439 64.3069 16.9439 64.7725 17.1768 65.0054L18.4577 66.286C18.6906 66.5188 18.6906 66.7517 18.5741 66.9845C18.4577 67.2173 18.2248 67.3337 17.9919 67.3337H16.2453C15.896 67.3337 15.6631 67.5666 15.6631 67.9158V73.2711C15.6631 73.6204 15.896 73.8532 16.2453 73.8532H17.9919C18.2248 73.8532 18.4577 73.9696 18.5741 74.2025C18.6906 74.4353 18.5741 74.6681 18.4577 74.901L17.1768 76.1816C16.9439 76.4144 16.9439 76.8801 17.1768 77.1129L21.0194 80.9548C21.2523 81.1876 21.718 81.1876 21.9509 80.9548L23.2317 79.6742C23.4646 79.4413 23.6975 79.4413 23.9304 79.5577C24.1633 79.6742 24.2797 79.907 24.2797 80.1398V81.8861C24.2797 82.3518 24.5126 82.5846 24.8619 82.5846ZM27.5401 76.5308C24.2797 76.5308 21.6016 73.8532 21.6016 70.5935C21.6016 67.3338 24.2797 64.6561 27.5401 64.6561C30.8004 64.6561 33.4785 67.3338 33.4785 70.5935C33.4785 73.8532 30.8004 76.5308 27.5401 76.5308Z" fill="white"/>
<path d="M316.546 62.328H319.69C319.923 62.328 320.039 62.2116 320.039 61.9788V60.931C320.039 60.8146 320.156 60.6982 320.272 60.5818C320.389 60.5818 320.622 60.5818 320.622 60.6982L321.437 61.3967C321.553 61.5131 321.786 61.5131 321.903 61.3967L324.115 59.1847C324.231 59.0683 324.231 58.8355 324.115 58.7191L323.416 58.0205C323.3 57.9041 323.3 57.7877 323.3 57.6713C323.3 57.5549 323.533 57.4385 323.649 57.4385H324.697C324.93 57.4385 325.046 57.322 325.046 57.0892V53.9459C325.046 53.713 324.93 53.5966 324.697 53.5966H323.649C323.533 53.5966 323.416 53.4802 323.3 53.3638C323.3 53.2474 323.3 53.0145 323.416 53.0145L324.115 52.316C324.231 52.1996 324.231 51.9668 324.115 51.8503L321.903 49.6384C321.786 49.522 321.553 49.522 321.437 49.6384L320.738 50.3369C320.622 50.4533 320.505 50.4533 320.389 50.4533C320.272 50.4533 320.156 50.2205 320.156 50.1041V49.0563C320.156 48.8235 320.039 48.707 319.807 48.707H316.663C316.43 48.707 316.313 48.8235 316.313 49.0563V50.1041C316.313 50.2205 316.197 50.3369 316.08 50.4533C315.964 50.4533 315.731 50.4533 315.731 50.3369L315.033 49.6384C314.916 49.522 314.683 49.522 314.567 49.6384L312.354 51.8503C312.238 51.9668 312.238 52.1996 312.354 52.316L313.053 53.0145C313.169 53.131 313.169 53.2474 313.169 53.3638C313.169 53.4802 312.937 53.5966 312.82 53.5966H311.772C311.539 53.5966 311.423 53.713 311.423 53.9459V57.0892C311.423 57.322 311.539 57.4385 311.772 57.4385H312.82C312.937 57.4385 313.053 57.5549 313.169 57.6713C313.169 57.7877 313.169 58.0205 313.053 58.0205L312.354 58.7191C312.238 58.8355 312.238 59.0683 312.354 59.1847L314.567 61.3967C314.683 61.5131 314.916 61.5131 315.033 61.3967L315.731 60.6982C315.848 60.5818 315.964 60.5818 316.08 60.5818C316.197 60.5818 316.313 60.8146 316.313 60.931V61.9788C316.197 62.2116 316.313 62.328 316.546 62.328ZM318.06 58.8355C316.197 58.8355 314.683 57.322 314.683 55.4593C314.683 53.5966 316.197 52.0832 318.06 52.0832C319.923 52.0832 321.437 53.5966 321.437 55.4593C321.553 57.322 320.039 58.8355 318.06 58.8355Z" fill="white"/>
</g>
<g opacity="0.54">
<path d="M95.891 26.356V19.4872C95.891 19.0216 95.5417 18.6723 95.076 18.6723H92.7471C92.3978 18.6723 92.1649 18.4395 92.0485 18.2066C91.932 17.8574 91.932 17.5081 92.1649 17.2753L93.7951 15.6454C94.1444 15.2962 94.1444 14.8305 93.7951 14.4812L88.9046 9.59163C88.5553 9.24238 88.0895 9.24238 87.7402 9.59163L86.11 11.2215C85.8771 11.4543 85.5278 11.5708 85.1785 11.3379C84.8291 11.2215 84.7127 10.8722 84.7127 10.6394V8.31103C84.7127 7.84535 84.3634 7.49609 83.8976 7.49609H77.0276C76.5618 7.49609 76.2125 7.84535 76.2125 8.31103V10.6394C76.2125 10.9887 75.9796 11.2215 75.7467 11.3379C75.3974 11.4543 75.0481 11.4543 74.8152 11.2215L73.185 9.59163C72.8357 9.24238 72.37 9.24238 72.0206 9.59163L67.1301 14.4812C66.7808 14.8305 66.7808 15.2962 67.1301 15.6454L68.7603 17.2753C68.9932 17.5081 69.1096 17.8574 68.8767 18.2066C68.7603 18.5559 68.411 18.6723 68.1781 18.6723H65.8493C65.3835 18.6723 65.0342 19.0216 65.0342 19.4872V26.356C65.0342 26.8216 65.3835 27.1709 65.8493 27.1709H68.1781C68.5274 27.1709 68.7603 27.4037 68.8767 27.6366C68.9932 27.9858 68.9932 28.3351 68.7603 28.5679L67.1301 30.1978C66.7808 30.547 66.7808 31.0127 67.1301 31.362L72.0206 36.2516C72.37 36.6008 72.8357 36.6008 73.185 36.2516L74.8152 34.6217C75.0481 34.3889 75.3974 34.2724 75.7467 34.5053C76.0961 34.6217 76.2125 34.971 76.2125 35.2038V37.5322C76.2125 37.9979 76.5618 38.3471 77.0276 38.3471H83.8976C84.3634 38.3471 84.7127 37.9979 84.7127 37.5322V35.2038C84.7127 34.8545 84.9456 34.6217 85.1785 34.5053C85.5278 34.3889 85.8771 34.3889 86.11 34.6217L87.7402 36.2516C88.0895 36.6008 88.5553 36.6008 88.9046 36.2516L93.7951 31.362C94.1444 31.0127 94.1444 30.547 93.7951 30.1978L92.1649 28.5679C91.932 28.3351 91.8156 27.9858 92.0485 27.6366C92.1649 27.2873 92.5142 27.1709 92.7471 27.1709H95.076C95.4253 27.1709 95.891 26.8216 95.891 26.356ZM88.0895 22.8634C88.0895 27.0545 84.7127 30.4306 80.5208 30.4306C76.3289 30.4306 72.9522 27.0545 72.9522 22.8634C72.9522 18.6723 76.3289 15.2962 80.5208 15.2962C84.7127 15.2962 88.0895 18.7887 88.0895 22.8634Z" fill="#CBEAFF"/>
<path d="M411.562 89.5698H416.918C417.268 89.5698 417.501 89.3369 417.501 88.9877V87.2414C417.501 87.0086 417.617 86.7757 417.85 86.6593C418.083 86.5429 418.316 86.6593 418.549 86.7757L419.829 88.0563C420.062 88.2892 420.528 88.2892 420.761 88.0563L424.604 84.2145C424.836 83.9817 424.836 83.516 424.604 83.2832L423.323 82.0025C423.09 81.7697 423.09 81.5369 423.206 81.304C423.323 81.0712 423.556 80.9548 423.788 80.9548H425.535C425.884 80.9548 426.117 80.7219 426.117 80.3727V75.0174C426.117 74.6681 425.884 74.4353 425.535 74.4353H423.788C423.556 74.4353 423.323 74.3189 423.206 74.0861C423.09 73.8532 423.206 73.6204 423.323 73.3875L424.604 72.1069C424.836 71.8741 424.836 71.4084 424.604 71.1756L420.761 67.3338C420.528 67.1009 420.062 67.1009 419.829 67.3338L418.549 68.6144C418.316 68.8472 418.083 68.8472 417.85 68.7308C417.617 68.6144 417.501 68.3815 417.501 68.1487V66.4024C417.501 66.0532 417.268 65.8203 416.918 65.8203H411.562C411.213 65.8203 410.98 66.0532 410.98 66.4024V68.1487C410.98 68.3815 410.863 68.6144 410.631 68.7308C410.398 68.8472 410.165 68.7308 409.932 68.6144L408.651 67.3338C408.418 67.1009 407.952 67.1009 407.72 67.3338L403.877 71.1756C403.644 71.4084 403.644 71.8741 403.877 72.1069L405.158 73.3875C405.391 73.6204 405.391 73.8532 405.274 74.0861C405.158 74.3189 404.925 74.4353 404.692 74.4353H402.945C402.596 74.4353 402.363 74.6681 402.363 75.0174V80.3727C402.363 80.7219 402.596 80.9548 402.945 80.9548H404.692C404.925 80.9548 405.158 81.0712 405.274 81.304C405.391 81.5369 405.274 81.7697 405.158 82.0025L403.877 83.2832C403.644 83.516 403.644 83.9817 403.877 84.2145L407.72 88.0563C407.952 88.2892 408.418 88.2892 408.651 88.0563L409.932 86.7757C410.165 86.5429 410.398 86.5429 410.631 86.6593C410.863 86.7757 410.98 87.0086 410.98 87.2414V88.9877C410.98 89.2205 411.213 89.5698 411.562 89.5698ZM414.24 83.516C410.98 83.516 408.302 80.8384 408.302 77.5786C408.302 74.3189 410.98 71.6413 414.24 71.6413C417.501 71.6413 420.179 74.3189 420.179 77.5786C420.179 80.8384 417.501 83.516 414.24 83.516Z" fill="#CBEAFF"/>
<path d="M395.26 63.2577H398.404C398.637 63.2577 398.754 63.1413 398.754 62.9085V61.8607C398.754 61.7443 398.87 61.6279 398.986 61.5114C399.103 61.5114 399.336 61.5115 399.336 61.6279L400.034 62.3264C400.151 62.4428 400.384 62.4428 400.5 62.3264L402.713 60.1144C402.829 59.998 402.829 59.7652 402.713 59.6487L402.014 58.9502C401.898 58.8338 401.898 58.7174 401.898 58.601C401.898 58.4846 402.13 58.3681 402.247 58.3681H403.295C403.528 58.3681 403.644 58.2517 403.644 58.0189V54.8756C403.644 54.6427 403.528 54.5263 403.295 54.5263H402.247C402.13 54.5263 402.014 54.4099 401.898 54.2935C401.898 54.1771 401.898 53.9442 402.014 53.9442L402.713 53.2457C402.829 53.1293 402.829 52.8964 402.713 52.78L400.5 50.5681C400.384 50.4517 400.151 50.4517 400.034 50.5681L399.336 51.2666C399.219 51.383 399.103 51.383 398.986 51.383C398.87 51.383 398.754 51.1502 398.754 51.0337V49.986C398.754 49.7531 398.637 49.6367 398.404 49.6367H395.26C395.027 49.6367 394.911 49.7531 394.911 49.986V50.9173C394.911 51.0337 394.795 51.1502 394.678 51.2666C394.562 51.2666 394.329 51.2666 394.329 51.1502L393.63 50.4516C393.514 50.3352 393.281 50.3352 393.164 50.4516L390.952 52.6636C390.836 52.78 390.836 53.0129 390.952 53.1293L391.651 53.8278C391.767 53.9442 391.767 54.0606 391.767 54.1771C391.767 54.2935 391.534 54.4099 391.418 54.4099H390.37C390.137 54.4099 390.021 54.5263 390.021 54.7591V57.9025C390.021 58.1353 390.137 58.2517 390.37 58.2517H391.418C391.534 58.2517 391.651 58.3681 391.767 58.4846C391.767 58.601 391.767 58.8338 391.651 58.8338L390.952 59.5323C390.836 59.6487 390.836 59.8816 390.952 59.998L393.164 62.21C393.281 62.3264 393.514 62.3264 393.63 62.21L394.329 61.5114C394.445 61.395 394.562 61.395 394.678 61.395C394.795 61.395 394.911 61.6279 394.911 61.7443V62.7921C394.911 63.1413 395.027 63.2577 395.26 63.2577ZM396.774 59.7652C394.911 59.7652 393.397 58.2517 393.397 56.389C393.397 54.5263 394.911 53.0129 396.774 53.0129C398.637 53.0129 400.151 54.5263 400.151 56.389C400.151 58.2517 398.637 59.7652 396.774 59.7652Z" fill="#CBEAFF"/>
<path d="M213.73 14.4796H216.874C217.107 14.4796 217.223 14.3632 217.223 14.1304V13.0826C217.223 12.9662 217.34 12.8498 217.456 12.7333C217.572 12.7333 217.805 12.7333 217.805 12.8498L218.504 13.5483C218.62 13.6647 218.853 13.6647 218.97 13.5483L221.299 11.3363C221.415 11.2199 221.415 10.9871 221.299 10.8706L220.6 10.1721C220.483 10.0557 220.483 9.93928 220.483 9.82286C220.483 9.70645 220.716 9.59003 220.833 9.59003H221.881C222.114 9.59003 222.23 9.47361 222.23 9.24077V5.98104C222.23 5.7482 222.114 5.63178 221.881 5.63178H220.833C220.716 5.63178 220.6 5.51536 220.483 5.39895C220.483 5.28253 220.483 5.04969 220.6 5.04969L221.299 4.35117C221.415 4.23476 221.415 4.00192 221.299 3.8855L219.086 1.67354C218.97 1.55712 218.737 1.55712 218.62 1.67354L217.922 2.37205C217.805 2.48847 217.689 2.48847 217.572 2.48847C217.456 2.48847 217.34 2.25563 217.34 2.13921V1.09144C217.34 0.858607 217.223 0.742188 216.99 0.742188H213.846C213.613 0.742188 213.497 0.858607 213.497 1.09144V2.0228C213.497 2.13921 213.381 2.25563 213.264 2.37205C213.148 2.37205 212.915 2.37205 212.915 2.25563L212.216 1.55712C212.1 1.4407 211.867 1.4407 211.75 1.55712L209.538 3.76908C209.422 3.8855 209.422 4.11834 209.538 4.23476L210.237 4.93327C210.353 5.04969 210.353 5.16611 210.353 5.28253C210.353 5.39895 210.12 5.51536 210.004 5.51536H208.956C208.723 5.51536 208.606 5.63178 208.606 5.86462V9.00793C208.606 9.24077 208.723 9.35719 208.956 9.35719H210.004C210.12 9.35719 210.237 9.47361 210.353 9.59003C210.353 9.70645 210.353 9.93928 210.237 9.93928L209.538 10.6378C209.422 10.7542 209.422 10.9871 209.538 11.1035L211.75 13.3154C211.867 13.4319 212.1 13.4319 212.216 13.3154L212.915 12.6169C213.031 12.5005 213.148 12.5005 213.264 12.5005C213.381 12.5005 213.497 12.7333 213.497 12.8498V13.8975C213.381 14.3632 213.613 14.4796 213.73 14.4796ZM215.36 10.9871C213.497 10.9871 211.983 9.47361 211.983 7.61091C211.983 5.7482 213.497 4.23476 215.36 4.23476C217.223 4.23476 218.737 5.7482 218.737 7.61091C218.737 9.47361 217.223 10.9871 215.36 10.9871Z" fill="#CBEAFF"/>
</g>
<path d="M239.928 165.008V140.211H184.852V165.008L176.351 169.316C175.187 169.898 175.536 171.76 176.934 171.76H247.73C249.127 171.76 249.476 169.898 248.312 169.316L239.928 165.008Z" fill="url(#paint0_linear_3244_27559)"/>
<path opacity="0.5" d="M239.928 144.633H184.852V157.788H239.928V144.633Z" fill="#2134A3"/>
<path d="M299.662 150.921H127.679C123.487 150.921 120.11 147.545 120.11 143.354V28.2157C120.11 24.0246 123.487 20.6484 127.679 20.6484H299.662C303.854 20.6484 307.231 24.0246 307.231 28.2157V143.354C307.231 147.545 303.854 150.921 299.662 150.921Z" fill="url(#paint1_linear_3244_27559)"/>
<path d="M296.751 145.101H129.309C126.863 145.101 124.884 143.122 124.884 140.677V29.963C124.884 27.5182 126.863 25.5391 129.309 25.5391H296.751C299.196 25.5391 301.175 27.5182 301.175 29.963V140.677C301.175 143.122 299.196 145.101 296.751 145.101Z" fill="#D6ECF6"/>
<path d="M205.345 69.6586H136.063C134.083 69.6586 132.453 68.0288 132.453 66.0497V36.9449C132.453 34.9658 134.083 33.3359 135.946 33.3359C148.755 33.3359 192.42 33.3359 205.229 33.3359C207.208 33.3359 208.722 34.9658 208.722 36.9449C208.722 43.9301 208.722 59.1809 208.722 66.1661C208.838 68.1452 207.208 69.6586 205.345 69.6586Z" fill="white"/>
<path d="M293.142 79.5574H223.511C221.648 79.5574 220.134 78.0439 220.134 76.1812V36.5988C220.134 34.7361 221.648 33.2227 223.511 33.2227H293.142C295.005 33.2227 296.519 34.7361 296.519 36.5988V76.2977C296.519 78.044 295.005 79.5574 293.142 79.5574Z" fill="white"/>
<path d="M184.617 92.5965H138.041C136.993 92.5965 136.178 91.7816 136.178 90.7338C136.178 89.686 136.993 88.8711 138.041 88.8711H184.617C185.665 88.8711 186.48 89.686 186.48 90.7338C186.364 91.7816 185.549 92.5965 184.617 92.5965Z" fill="white"/>
<path d="M207.207 99.2307H138.041C137.343 99.2307 136.877 98.6486 136.877 98.0665C136.877 97.368 137.459 96.9023 138.041 96.9023H207.207C207.906 96.9023 208.372 97.4844 208.372 98.0665C208.372 98.6486 207.906 99.2307 207.207 99.2307ZM208.372 105.285C208.372 104.586 207.789 104.12 207.207 104.12H138.041C137.343 104.12 136.877 104.702 136.877 105.285C136.877 105.983 137.459 106.565 138.041 106.565H207.207C207.906 106.565 208.372 105.983 208.372 105.285ZM208.372 112.619C208.372 111.92 207.789 111.455 207.207 111.455H138.041C137.343 111.455 136.877 112.037 136.877 112.619C136.877 113.317 137.459 113.783 138.041 113.783H207.207C207.906 113.783 208.372 113.317 208.372 112.619ZM208.372 119.837C208.372 119.138 207.789 118.673 207.207 118.673H138.041C137.343 118.673 136.877 119.255 136.877 119.837C136.877 120.535 137.459 121.001 138.041 121.001H207.207C207.906 121.117 208.372 120.535 208.372 119.837ZM208.372 127.171C208.372 126.473 207.789 126.007 207.207 126.007H138.041C137.343 126.007 136.877 126.589 136.877 127.171C136.877 127.87 137.459 128.335 138.041 128.335H207.207C207.906 128.452 208.372 127.87 208.372 127.171Z" fill="white"/>
<path opacity="0.52" d="M136.879 61.6282V41.4878C136.879 40.0907 137.927 39.043 139.324 39.043C144.098 39.043 154.694 39.043 159.468 39.043C160.866 39.043 161.914 40.0907 161.914 41.4878V61.6282C161.914 63.0253 160.866 64.073 159.468 64.073C154.694 64.073 144.098 64.073 139.324 64.073C137.927 64.073 136.879 63.0253 136.879 61.6282Z" fill="#D6ECF6"/>
<path opacity="0.52" d="M203.833 44.397H166.688C166.339 44.397 165.989 44.0478 165.989 43.6985C165.989 43.3493 166.339 43 166.688 43H203.833C204.182 43 204.531 43.3493 204.531 43.6985C204.415 44.0478 204.182 44.397 203.833 44.397ZM204.415 47.6568C204.415 47.3075 204.066 46.9582 203.716 46.9582H166.572C166.222 46.9582 165.873 47.3075 165.873 47.6568C165.873 48.006 166.222 48.3553 166.572 48.3553H203.833C204.182 48.2389 204.415 48.006 204.415 47.6568ZM204.415 51.4986C204.415 51.1493 204.066 50.8001 203.716 50.8001H166.572C166.222 50.8001 165.873 51.1493 165.873 51.4986C165.873 51.8478 166.222 52.1971 166.572 52.1971H203.833C204.182 52.1971 204.415 51.9643 204.415 51.4986ZM204.415 55.4568C204.415 55.1076 204.066 54.7583 203.716 54.7583H166.572C166.222 54.7583 165.873 55.1076 165.873 55.4568C165.873 55.8061 166.222 56.1553 166.572 56.1553H203.833C204.182 56.1553 204.415 55.8061 204.415 55.4568ZM204.415 59.4151C204.415 59.0658 204.066 58.7166 203.716 58.7166H166.572C166.222 58.7166 165.873 59.0658 165.873 59.4151C165.873 59.7643 166.222 60.1136 166.572 60.1136H203.833C204.182 59.9972 204.415 59.7643 204.415 59.4151Z" fill="#D6ECF6"/>
<g opacity="0.52">
<path d="M227.002 67.7997V44.9816C227.002 43.4681 228.283 42.1875 229.797 42.1875C235.269 42.1875 247.263 42.1875 252.735 42.1875C254.249 42.1875 255.53 43.4681 255.53 44.9816V67.9161C255.53 69.4295 254.249 70.7101 252.735 70.7101C247.263 70.7101 235.269 70.7101 229.797 70.7101C228.283 70.5937 227.002 69.4295 227.002 67.7997Z" fill="#D6ECF6"/>
<path d="M261.12 67.7997V44.9816C261.12 43.4681 262.401 42.1875 263.915 42.1875C269.387 42.1875 281.381 42.1875 286.854 42.1875C288.367 42.1875 289.648 43.4681 289.648 44.9816V67.9161C289.648 69.4295 288.367 70.7101 286.854 70.7101C281.381 70.7101 269.387 70.7101 263.915 70.7101C262.401 70.5937 261.12 69.4295 261.12 67.7997Z" fill="#D6ECF6"/>
</g>
<path d="M83.8986 105.287L44.5416 125.427C42.5621 126.475 40.0004 125.66 39.0688 123.681L28.4727 103.075C27.4247 101.096 28.2398 98.5347 30.2193 97.6033L69.5764 77.4629C71.5559 76.4151 74.1176 77.23 75.0491 79.2091L85.6452 99.8153C86.6932 101.678 85.9945 104.239 83.8986 105.287Z" fill="#EBF2FF"/>
<g opacity="0.52">
<path d="M40.0001 117.741L33.8287 105.634C33.363 104.819 33.7123 103.771 34.5274 103.422C37.4384 101.908 43.7262 98.765 46.6372 97.2515C47.4523 96.7859 48.5003 97.1351 48.8496 97.9501L55.021 109.941C55.4868 110.756 55.1374 111.804 54.3223 112.153C51.4113 113.667 45.1235 116.81 42.2125 118.323C41.3974 118.789 40.3494 118.556 40.0001 117.741Z" fill="#BCD8E2"/>
<path d="M74.8163 86.8919L52.5761 98.3009C52.3432 98.4173 52.1104 98.3009 51.9939 98.0681C51.8775 97.8352 51.9939 97.6024 52.2268 97.486L74.467 86.0769C74.6999 85.9605 74.9328 86.0769 75.0492 86.3098C75.0492 86.5426 75.0492 86.7754 74.8163 86.8919ZM76.2136 88.6381C76.0972 88.4053 75.8643 88.2889 75.6314 88.4053L53.2748 99.8144C53.0419 99.9308 52.9255 100.164 53.0419 100.396C53.1583 100.629 53.3912 100.746 53.6241 100.629L75.8643 89.2202C76.2136 89.1038 76.3301 88.871 76.2136 88.6381ZM77.3781 90.9665C77.2616 90.7337 77.0287 90.6173 76.7958 90.7337L54.5556 102.143C54.3227 102.259 54.2063 102.492 54.3227 102.725C54.4392 102.958 54.6721 103.074 54.9049 102.958L77.1452 91.5486C77.378 91.4322 77.4945 91.1994 77.3781 90.9665ZM78.5425 93.2949C78.426 93.0621 78.1931 92.9456 77.9603 93.0621L55.72 104.471C55.4872 104.588 55.3707 104.82 55.4872 105.053C55.6036 105.286 55.8365 105.402 56.0694 105.286L78.3096 93.877C78.6589 93.7606 78.6589 93.5277 78.5425 93.2949ZM79.8233 95.6233C79.7069 95.3904 79.474 95.274 79.2411 95.3904L56.8844 106.799C56.6516 106.916 56.5351 107.149 56.6516 107.382C56.768 107.614 57.0009 107.731 57.2338 107.614L79.474 96.2054C79.8233 96.089 79.9398 95.8561 79.8233 95.6233Z" fill="#BCD8E2"/>
</g>
<path d="M99.2673 115.531L56.6499 103.772C54.4375 103.19 53.1567 100.862 53.7389 98.7664L59.9102 76.414C60.4924 74.202 62.8213 72.9214 64.9172 73.5035L107.535 85.2618C109.747 85.8439 111.028 88.1723 110.446 90.2678L104.274 112.62C103.692 114.832 101.48 116.113 99.2673 115.531Z" fill="white"/>
<g opacity="0.52">
<path d="M58.3965 95.0398L62.0061 82.0009C62.239 81.0695 63.1706 80.6038 64.1021 80.8367C67.246 81.6516 73.9996 83.6307 77.1435 84.4457C78.075 84.6785 78.5408 85.6099 78.3079 86.5412L74.6982 99.5801C74.4653 100.511 73.5338 100.977 72.6023 100.744C69.4584 99.9294 62.7048 97.9503 59.5609 97.1353C58.7458 96.9025 58.1636 95.9711 58.3965 95.0398Z" fill="#D6ECF6"/>
<path d="M104.973 95.8563L80.8694 89.2204C80.6366 89.104 80.5201 88.8712 80.5201 88.6383C80.6366 88.4055 80.8694 88.2891 81.1023 88.2891L105.206 94.9249C105.438 95.0414 105.555 95.2742 105.555 95.507C105.438 95.7399 105.206 95.9727 104.973 95.8563ZM104.74 98.0683C104.856 97.8354 104.623 97.6026 104.391 97.4862L80.4037 90.8503C80.1708 90.7339 79.9379 90.9667 79.8215 91.1995C79.705 91.4324 79.9379 91.6652 80.1708 91.7816L104.274 98.4175C104.507 98.4175 104.74 98.3011 104.74 98.0683ZM104.041 100.629C104.158 100.397 103.925 100.164 103.692 100.047L79.5886 93.4115C79.3557 93.2951 79.1228 93.5279 79.0064 93.7608C78.89 93.9936 79.1228 94.2264 79.3557 94.3429L103.459 100.979C103.808 100.979 104.041 100.862 104.041 100.629ZM103.343 103.191C103.459 102.958 103.226 102.725 102.993 102.609L78.8899 95.9727C78.6571 95.8563 78.4242 96.0891 78.3077 96.322C78.1913 96.5548 78.4242 96.7876 78.6571 96.9041L102.76 103.54C103.11 103.54 103.343 103.424 103.343 103.191ZM102.644 105.752C102.76 105.519 102.527 105.286 102.295 105.17L78.1913 98.5339C77.9584 98.4175 77.7255 98.6503 77.6091 98.8832C77.4927 99.116 77.7255 99.3489 77.9584 99.4653L102.062 106.101C102.411 106.101 102.644 105.985 102.644 105.752Z" fill="#D6ECF6"/>
</g>
<path d="M29.5192 138.581H113.473V109.359H46.7524L18.3408 117.392L29.5192 138.581Z" fill="url(#paint2_linear_3244_27559)"/>
<path d="M22.6497 145.102H115.802V135.672H22.1839C21.3688 135.672 20.7866 136.836 21.0195 137.884L22.6497 145.102Z" fill="url(#paint3_linear_3244_27559)"/>
<path d="M160.283 145.099C161.448 145.099 162.263 144.168 162.263 143.12V127.753C162.263 126.588 161.331 125.773 160.283 125.773V145.099Z" fill="url(#paint4_linear_3244_27559)"/>
<path d="M144.68 101.324L149.687 122.047L160.283 125.889V145.098H155.276H130.591H111.96V101.324H144.68Z" fill="url(#paint5_linear_3244_27559)"/>
<path d="M25.5614 150.686H113.707V145.098H22.6504V147.775C22.6504 149.405 23.9312 150.686 25.5614 150.686Z" fill="url(#paint6_linear_3244_27559)"/>
<path d="M100.665 150.689H165.639C167.269 150.689 168.434 148.826 167.968 146.847L166.571 140.328C166.222 138.465 164.824 137.301 163.31 137.301H104.624C102.412 137.301 100.549 139.629 100.549 142.423V150.689H100.665Z" fill="url(#paint7_linear_3244_27559)"/>
<path d="M111.96 101.326H144.913C145.844 101.326 146.543 100.628 146.543 99.6963C146.543 98.7649 145.844 98.0664 144.913 98.0664H113.474C112.659 98.0664 111.96 98.7649 111.96 99.5799V101.326Z" fill="#455FE8"/>
<path d="M136.18 119.953V104.819C136.18 103.655 137.112 102.84 138.16 102.84H145.03L149.687 122.049H138.16C136.995 122.049 136.18 121.118 136.18 119.953ZM126.283 122.049H132.221C133.386 122.049 134.201 121.118 134.201 120.07V104.935C134.201 103.771 133.269 102.956 132.221 102.956H117.084C115.92 102.956 115.104 103.888 115.104 104.935V112.037C115.104 113.085 115.57 114.132 116.385 114.831L123.954 121.234C124.536 121.7 125.468 122.049 126.283 122.049Z" fill="#B8E4FF"/>
<path d="M108.467 150.688H155.276L147.94 136.485C147.242 135.088 145.728 134.156 144.098 134.156H119.529C117.899 134.156 116.385 135.088 115.686 136.485L108.467 150.688Z" fill="url(#paint8_linear_3244_27559)"/>
<path d="M112.774 150.688H150.967L145.261 139.512C144.563 138.115 143.049 137.184 141.419 137.184H122.323C120.692 137.184 119.179 138.115 118.48 139.512L112.774 150.688Z" fill="#0B257A"/>
<path d="M30.917 150.688H77.7262L70.3905 136.485C69.6918 135.088 68.1781 134.156 66.5479 134.156H41.9789C40.3487 134.156 38.835 135.088 38.1363 136.485L30.917 150.688Z" fill="url(#paint9_linear_3244_27559)"/>
<path d="M35.2256 150.688H73.4182L67.7126 139.512C67.014 138.115 65.5002 137.184 63.8701 137.184H44.7738C43.1436 137.184 41.6298 138.115 40.9312 139.512L35.2256 150.688Z" fill="#0B257A"/>
<path d="M131.871 171.645C141.002 171.645 148.405 164.244 148.405 155.114C148.405 145.983 141.002 138.582 131.871 138.582C122.739 138.582 115.336 145.983 115.336 155.114C115.336 164.244 122.739 171.645 131.871 171.645Z" fill="#2134A3"/>
<path d="M133.365 163.961C138.248 163.137 141.539 158.512 140.715 153.63C139.891 148.748 135.264 145.458 130.381 146.282C125.498 147.106 122.208 151.731 123.032 156.613C123.856 161.495 128.482 164.785 133.365 163.961Z" fill="#87A0FF"/>
<path d="M126.863 155.115C126.863 157.909 129.076 160.121 131.87 160.121C134.665 160.121 136.877 157.909 136.877 155.115C136.877 152.321 134.665 150.109 131.87 150.109C129.076 150.109 126.863 152.321 126.863 155.115Z" fill="url(#paint10_linear_3244_27559)"/>
<path d="M54.2045 171.645C63.3364 171.645 70.7391 164.244 70.7391 155.114C70.7391 145.983 63.3364 138.582 54.2045 138.582C45.0727 138.582 37.6699 145.983 37.6699 155.114C37.6699 164.244 45.0727 171.645 54.2045 171.645Z" fill="#2134A3"/>
<path d="M60.5458 161.495C64.0472 157.994 64.0472 152.318 60.5458 148.818C57.0444 145.317 51.3676 145.317 47.8662 148.818C44.3648 152.318 44.3648 157.994 47.8662 161.495C51.3676 164.996 57.0444 164.996 60.5458 161.495Z" fill="#87A0FF"/>
<path d="M49.3135 155.115C49.3135 157.909 51.5258 160.121 54.3204 160.121C57.115 160.121 59.3274 157.909 59.3274 155.115C59.3274 152.321 57.115 150.109 54.3204 150.109C51.5258 150.109 49.3135 152.321 49.3135 155.115Z" fill="url(#paint11_linear_3244_27559)"/>
<path d="M141.885 94.5738C141.536 94.9231 141.07 95.1559 140.488 95.1559H113.241C112.309 95.1559 111.378 95.8544 111.261 96.7858L109.631 105.284C109.398 106.216 108.583 106.914 107.651 106.914H99.0348C97.521 106.914 96.4731 105.284 97.2881 103.887L103.576 92.0126C103.925 91.3141 104.624 90.9648 105.323 90.9648H140.488C142.351 90.9648 143.166 93.2932 141.885 94.5738Z" fill="#FECD07"/>
<path d="M41.1637 132.292H104.508L110.33 101.324H24.629L15.6631 115.644L41.1637 132.292Z" fill="url(#paint12_linear_3244_27559)"/>
<path d="M26.2592 104.7L18.3412 117.39L15.6631 115.644L24.629 101.324H110.33L109.747 104.7H26.2592Z" fill="#FECD07"/>
<path d="M256.929 83.6297C256.813 83.6297 256.697 83.5133 256.697 83.3969V33.1039C256.697 32.9875 256.813 32.8711 256.929 32.8711C257.046 32.8711 257.162 32.9875 257.162 33.1039V83.3969C257.162 83.5133 257.046 83.6297 256.929 83.6297ZM251.922 83.6297C251.806 83.6297 251.69 83.5133 251.69 83.3969V33.1039C251.69 32.9875 251.806 32.8711 251.922 32.8711C252.039 32.8711 252.155 32.9875 252.155 33.1039V83.3969C252.155 83.5133 252.039 83.6297 251.922 83.6297ZM246.916 83.6297C246.799 83.6297 246.683 83.5133 246.683 83.3969V33.1039C246.683 32.9875 246.799 32.8711 246.916 32.8711C247.032 32.8711 247.148 32.9875 247.148 33.1039V83.3969C247.148 83.5133 247.032 83.6297 246.916 83.6297Z" fill="#455FE8"/>
<path d="M356.254 160.119H335.295C334.946 160.119 334.713 159.77 334.713 159.421V12.6165C334.713 12.2672 334.946 11.918 335.295 11.918H356.254C356.604 11.918 356.837 12.2672 356.837 12.6165V159.537C356.837 159.77 356.604 160.119 356.254 160.119ZM335.994 158.722H355.789V13.1986H335.994V158.722Z" fill="#455FE8"/>
<path d="M356.253 54.6408H335.294C334.945 54.6408 334.712 54.4079 334.712 54.0587C334.712 53.7094 334.945 53.4766 335.294 53.4766H356.253C356.603 53.4766 356.836 53.7094 356.836 54.0587C356.836 54.4079 356.603 54.6408 356.253 54.6408Z" fill="#455FE8"/>
<path d="M356.253 33.8048H335.294C334.945 33.8048 334.712 33.572 334.712 33.2227C334.712 32.8735 334.945 32.6406 335.294 32.6406H356.253C356.603 32.6406 356.836 32.8735 356.836 33.2227C356.836 33.4556 356.603 33.8048 356.253 33.8048Z" fill="#455FE8"/>
<path d="M356.253 75.8322H335.294C334.945 75.8322 334.712 75.5993 334.712 75.2501C334.712 74.9008 334.945 74.668 335.294 74.668H356.253C356.603 74.668 356.836 74.9008 356.836 75.2501C356.836 75.4829 356.603 75.8322 356.253 75.8322Z" fill="#455FE8"/>
<path d="M356.253 96.9025H335.294C334.945 96.9025 334.712 96.6696 334.712 96.3204C334.712 95.9711 334.945 95.7383 335.294 95.7383H356.253C356.603 95.7383 356.836 95.9711 356.836 96.3204C356.836 96.6696 356.603 96.9025 356.253 96.9025Z" fill="#455FE8"/>
<path d="M356.253 118.09H335.294C334.945 118.09 334.712 117.857 334.712 117.508C334.712 117.159 334.945 116.926 335.294 116.926H356.253C356.603 116.926 356.836 117.159 356.836 117.508C356.836 117.741 356.603 118.09 356.253 118.09Z" fill="#455FE8"/>
<path d="M356.253 138.817H335.294C334.945 138.817 334.712 138.584 334.712 138.234C334.712 137.885 334.945 137.652 335.294 137.652H356.253C356.603 137.652 356.836 137.885 356.836 138.234C356.836 138.584 356.603 138.817 356.253 138.817Z" fill="#455FE8"/>
<path d="M356.253 54.6434C356.137 54.6434 355.904 54.6434 355.787 54.527L334.828 33.5716C334.595 33.3388 334.595 32.9895 334.828 32.7567C335.061 32.5238 335.41 32.5238 335.643 32.7567L356.602 53.7121C356.835 53.9449 356.835 54.2942 356.602 54.527C356.602 54.6434 356.486 54.6434 356.253 54.6434Z" fill="#455FE8"/>
<path d="M335.41 54.6434C335.294 54.6434 335.061 54.6434 334.944 54.527C334.711 54.2942 334.711 53.9449 334.944 53.7121L355.904 32.7567C356.136 32.5238 356.486 32.5238 356.719 32.7567C356.952 32.9895 356.952 33.3388 356.719 33.5716L335.759 54.527C335.643 54.6434 335.526 54.6434 335.41 54.6434Z" fill="#455FE8"/>
<path d="M356.253 33.9208C356.137 33.9208 355.904 33.9208 355.787 33.8043L334.828 12.8489C334.595 12.6161 334.595 12.2668 334.828 12.034C335.061 11.8012 335.41 11.8012 335.643 12.034L356.602 32.9894C356.835 33.2223 356.835 33.5715 356.602 33.8043C356.602 33.9208 356.486 33.9208 356.253 33.9208Z" fill="#455FE8"/>
<path d="M335.41 33.9208C335.294 33.9208 335.061 33.9208 334.944 33.8043C334.711 33.5715 334.711 33.2223 334.944 32.9894L355.904 12.034C356.136 11.8012 356.486 11.8012 356.719 12.034C356.952 12.2668 356.952 12.6161 356.719 12.8489L335.759 33.8043C335.643 33.9208 335.526 33.9208 335.41 33.9208Z" fill="#455FE8"/>
<path d="M356.253 75.7137C356.137 75.7137 355.904 75.7137 355.787 75.5973L334.828 54.6419C334.595 54.4091 334.595 54.0598 334.828 53.827C335.061 53.5941 335.41 53.5941 335.643 53.827L356.602 74.7824C356.835 75.0152 356.835 75.3645 356.602 75.5973C356.602 75.7137 356.486 75.7137 356.253 75.7137Z" fill="#455FE8"/>
<path d="M335.41 75.7137C335.294 75.7137 335.061 75.7137 334.944 75.5973C334.711 75.3645 334.711 75.0152 334.944 74.7824L355.904 53.827C356.136 53.5941 356.486 53.5941 356.719 53.827C356.952 54.0598 356.952 54.4091 356.719 54.6419L335.759 75.5973C335.643 75.7137 335.526 75.7137 335.41 75.7137Z" fill="#455FE8"/>
<path d="M356.253 96.788C356.137 96.788 355.904 96.788 355.787 96.6715L334.828 75.7161C334.595 75.4833 334.595 75.134 334.828 74.9012C335.061 74.6684 335.41 74.6684 335.643 74.9012L356.602 95.8566C356.835 96.0894 356.835 96.4387 356.602 96.6715C356.602 96.6715 356.486 96.788 356.253 96.788Z" fill="#455FE8"/>
<path d="M335.41 96.788C335.294 96.788 335.061 96.788 334.944 96.6715C334.711 96.4387 334.711 96.0894 334.944 95.8566L355.904 74.9012C356.136 74.6684 356.486 74.6684 356.719 74.9012C356.952 75.134 356.952 75.4833 356.719 75.7161L335.759 96.6715C335.643 96.6715 335.526 96.788 335.41 96.788Z" fill="#455FE8"/>
<path d="M356.253 117.858C356.137 117.858 355.904 117.858 355.787 117.742L334.828 96.7864C334.595 96.5536 334.595 96.2043 334.828 95.9715C335.061 95.7387 335.41 95.7387 335.643 95.9715L356.602 116.927C356.835 117.16 356.835 117.509 356.602 117.742C356.602 117.742 356.486 117.858 356.253 117.858Z" fill="#455FE8"/>
<path d="M335.41 117.858C335.294 117.858 335.061 117.858 334.944 117.742C334.711 117.509 334.711 117.16 334.944 116.927L355.904 95.9715C356.136 95.7387 356.486 95.7387 356.719 95.9715C356.952 96.2043 356.952 96.5536 356.719 96.7864L335.759 117.742C335.643 117.742 335.526 117.858 335.41 117.858Z" fill="#455FE8"/>
<path d="M356.253 138.815C356.137 138.815 355.904 138.815 355.787 138.699L334.828 117.743C334.595 117.511 334.595 117.161 334.828 116.929C335.061 116.696 335.41 116.696 335.643 116.929L356.602 137.884C356.835 138.117 356.835 138.466 356.602 138.699C356.602 138.815 356.486 138.815 356.253 138.815Z" fill="#455FE8"/>
<path d="M335.41 138.815C335.294 138.815 335.061 138.815 334.944 138.699C334.711 138.466 334.711 138.117 334.944 137.884L355.904 116.929C356.136 116.696 356.486 116.696 356.719 116.929C356.952 117.161 356.952 117.511 356.719 117.743L335.759 138.699C335.643 138.815 335.526 138.815 335.41 138.815Z" fill="#455FE8"/>
<path d="M356.253 159.772C356.137 159.772 355.904 159.772 355.787 159.656L334.828 138.701C334.595 138.468 334.595 138.118 334.828 137.886C335.061 137.653 335.41 137.653 335.643 137.886L356.602 158.841C356.835 159.074 356.835 159.423 356.602 159.656C356.602 159.656 356.486 159.772 356.253 159.772Z" fill="#455FE8"/>
<path d="M335.41 159.768C335.294 159.768 335.061 159.768 334.944 159.652C334.711 159.419 334.711 159.07 334.944 158.837L355.904 137.882C356.136 137.649 356.486 137.649 356.719 137.882C356.952 138.114 356.952 138.464 356.719 138.697L335.759 159.652C335.643 159.652 335.526 159.768 335.41 159.768Z" fill="#455FE8"/>
<path d="M335.177 33.9212H230.38C230.148 33.9212 229.915 33.8047 229.798 33.5719C229.682 33.3391 229.798 33.1062 229.915 32.9898L250.874 12.0344C250.99 11.918 251.107 11.918 251.34 11.918H335.177C335.527 11.918 335.759 12.1508 335.759 12.5001V33.4555C335.759 33.6883 335.527 33.9212 335.177 33.9212ZM231.778 32.757H334.595V12.9657H251.573L231.778 32.757Z" fill="#455FE8"/>
<path d="M293.606 33.9212C293.256 33.9212 293.023 33.6883 293.023 33.3391V12.5001C293.023 12.1508 293.256 11.918 293.606 11.918C293.955 11.918 294.188 12.1508 294.188 12.5001V33.4555C294.188 33.6883 293.839 33.9212 293.606 33.9212Z" fill="#455FE8"/>
<path d="M314.449 33.9212C314.1 33.9212 313.867 33.6883 313.867 33.3391V12.5001C313.867 12.1508 314.1 11.918 314.449 11.918C314.799 11.918 315.032 12.1508 315.032 12.5001V33.4555C315.032 33.6883 314.799 33.9212 314.449 33.9212Z" fill="#455FE8"/>
<path d="M272.413 33.9212C272.064 33.9212 271.831 33.6883 271.831 33.3391V12.5001C271.831 12.1508 272.064 11.918 272.413 11.918C272.763 11.918 272.995 12.1508 272.995 12.5001V33.4555C272.995 33.6883 272.763 33.9212 272.413 33.9212Z" fill="#455FE8"/>
<path d="M251.338 33.9212C250.989 33.9212 250.756 33.6883 250.756 33.3391V12.5001C250.756 12.1508 250.989 11.918 251.338 11.918C251.687 11.918 251.92 12.1508 251.92 12.5001V33.4555C251.92 33.6883 251.687 33.9212 251.338 33.9212Z" fill="#455FE8"/>
<path d="M293.606 33.9208C293.49 33.9208 293.257 33.9208 293.14 33.8043C292.908 33.5715 292.908 33.2223 293.14 32.9894L314.1 12.034C314.333 11.8012 314.682 11.8012 314.915 12.034C315.148 12.2668 315.148 12.6161 314.915 12.8489L293.956 33.8043C293.839 33.9208 293.723 33.9208 293.606 33.9208Z" fill="#455FE8"/>
<path d="M314.449 33.9208C314.333 33.9208 314.1 33.9208 313.984 33.8043L293.024 12.8489C292.791 12.6161 292.791 12.2668 293.024 12.034C293.257 11.8012 293.606 11.8012 293.839 12.034L314.799 32.9894C315.032 33.2223 315.032 33.5715 314.799 33.8043C314.799 33.9208 314.682 33.9208 314.449 33.9208Z" fill="#455FE8"/>
<path d="M314.333 33.9208C314.216 33.9208 313.983 33.9208 313.867 33.8043C313.634 33.5715 313.634 33.2223 313.867 32.9894L334.826 12.034C335.059 11.8012 335.409 11.8012 335.642 12.034C335.874 12.2668 335.874 12.6161 335.642 12.8489L314.682 33.8043C314.566 33.9208 314.449 33.9208 314.333 33.9208Z" fill="#455FE8"/>
<path d="M335.177 33.9208C335.061 33.9208 334.828 33.9208 334.711 33.8043L313.752 12.8489C313.519 12.6161 313.519 12.2668 313.752 12.034C313.985 11.8012 314.334 11.8012 314.567 12.034L335.526 32.9894C335.759 33.2223 335.759 33.5715 335.526 33.8043C335.526 33.9208 335.293 33.9208 335.177 33.9208Z" fill="#455FE8"/>
<path d="M272.53 33.9208C272.414 33.9208 272.181 33.9208 272.064 33.8043C271.831 33.5715 271.831 33.2223 272.064 32.9894L293.024 12.034C293.257 11.8012 293.606 11.8012 293.839 12.034C294.072 12.2668 294.072 12.6161 293.839 12.8489L272.879 33.8043C272.763 33.9208 272.647 33.9208 272.53 33.9208Z" fill="#455FE8"/>
<path d="M293.374 33.9208C293.258 33.9208 293.025 33.9208 292.908 33.8043L271.949 12.8489C271.716 12.6161 271.716 12.2668 271.949 12.034C272.182 11.8012 272.531 11.8012 272.764 12.034L293.724 32.9894C293.956 33.2223 293.956 33.5715 293.724 33.8043C293.724 33.9208 293.607 33.9208 293.374 33.9208Z" fill="#455FE8"/>
<path d="M251.455 33.9208C251.338 33.9208 251.106 33.9208 250.989 33.8043C250.756 33.5715 250.756 33.2223 250.989 32.9894L271.948 12.034C272.181 11.8012 272.531 11.8012 272.764 12.034C272.996 12.2668 272.996 12.6161 272.764 12.8489L251.804 33.8043C251.804 33.9208 251.571 33.9208 251.455 33.9208Z" fill="#455FE8"/>
<path d="M272.414 33.9208C272.298 33.9208 272.065 33.9208 271.948 33.8043L250.989 12.8489C250.756 12.6161 250.756 12.2668 250.989 12.034C251.222 11.8012 251.571 11.8012 251.804 12.034L272.764 32.9894C272.996 33.2223 272.996 33.5715 272.764 33.8043C272.647 33.9208 272.531 33.9208 272.414 33.9208Z" fill="#455FE8"/>
<path d="M381.171 171.762H310.608C308.978 171.762 307.813 170.481 307.813 168.968V161.517C307.813 159.887 309.094 158.723 310.608 158.723H381.171C382.801 158.723 383.966 160.003 383.966 161.517V168.968C383.966 170.481 382.685 171.762 381.171 171.762Z" fill="url(#paint13_linear_3244_27559)"/>
<path d="M253.32 91.549L260.889 87.94C262.053 87.3579 262.752 86.1937 262.752 85.0295V81.6534C262.752 80.3728 261.704 79.4414 260.539 79.4414H243.306C242.025 79.4414 241.094 80.4892 241.094 81.6534V85.0295C241.094 86.3101 241.792 87.4743 242.957 87.94L250.525 91.549H253.32Z" fill="url(#paint14_linear_3244_27559)"/>
<path d="M256.231 100.745C255.3 100.745 254.601 101.443 254.601 102.374C254.601 103.772 253.437 105.052 251.923 105.052C250.526 105.052 249.245 103.888 249.245 102.374C249.245 100.977 250.409 99.6968 251.923 99.6968C252.854 99.6968 253.553 98.9983 253.553 98.067V92.8281H250.293V96.67C247.847 97.3685 245.984 99.6968 245.984 102.374C245.984 105.634 248.662 108.312 251.923 108.312C255.183 108.312 257.861 105.634 257.861 102.374C257.861 101.443 257.046 100.745 256.231 100.745Z" fill="url(#paint15_linear_3244_27559)"/>
<path d="M254.485 94.6918H249.478C248.547 94.6918 247.731 93.8769 247.731 92.9455C247.731 92.0142 248.547 91.1992 249.478 91.1992H254.485C255.417 91.1992 256.232 92.0142 256.232 92.9455C256.232 93.8769 255.417 94.6918 254.485 94.6918Z" fill="#2134A3"/>
<path opacity="0.31" d="M283.828 165.241H224.676C222.464 165.241 220.601 163.378 220.601 161.166V128.918C220.601 126.706 222.464 124.844 224.676 124.844H283.828C286.04 124.844 287.903 126.706 287.903 128.918V161.05C287.903 163.378 286.04 165.241 283.828 165.241Z" fill="#A5B3CE"/>
<path d="M280.567 163.027H221.415C219.203 163.027 217.34 161.164 217.34 158.952V126.821C217.34 124.609 219.203 122.746 221.415 122.746H280.567C282.78 122.746 284.643 124.609 284.643 126.821V158.952C284.643 161.164 282.78 163.027 280.567 163.027Z" fill="white"/>
<path d="M270.554 122.748C270.437 122.748 270.437 122.748 270.321 122.631L252.039 104.819C251.923 104.703 251.923 104.587 252.039 104.47C252.156 104.354 252.272 104.354 252.389 104.47L270.67 122.282C270.786 122.399 270.786 122.515 270.67 122.631C270.67 122.748 270.554 122.748 270.554 122.748Z" fill="#455FE8"/>
<path d="M231.429 122.748C231.312 122.748 231.312 122.748 231.196 122.632C231.079 122.516 231.079 122.399 231.196 122.283L248.662 106.915C248.778 106.799 248.895 106.799 249.011 106.915C249.128 107.032 249.128 107.148 249.011 107.265L231.545 122.632C231.545 122.748 231.545 122.748 231.429 122.748Z" fill="#455FE8"/>
<g opacity="0.52">
<path d="M221.765 151.504V134.041C221.765 132.877 222.696 131.945 223.861 131.945C228.052 131.945 237.135 131.945 241.327 131.945C242.491 131.945 243.423 132.877 243.423 134.041V151.504C243.423 152.668 242.491 153.599 241.327 153.599C237.135 153.599 228.052 153.599 223.861 153.599C222.696 153.716 221.765 152.784 221.765 151.504Z" fill="#D6ECF6"/>
<path d="M279.635 136.602H247.497C247.148 136.602 246.915 136.369 246.915 136.02C246.915 135.67 247.148 135.438 247.497 135.438H279.635C279.984 135.438 280.217 135.67 280.217 136.02C280.217 136.369 279.984 136.602 279.635 136.602ZM280.217 139.512C280.217 139.163 279.984 138.93 279.635 138.93H247.497C247.148 138.93 246.915 139.163 246.915 139.512C246.915 139.861 247.148 140.094 247.497 140.094H279.635C279.984 139.978 280.217 139.745 280.217 139.512ZM280.217 142.888C280.217 142.539 279.984 142.306 279.635 142.306H247.497C247.148 142.306 246.915 142.539 246.915 142.888C246.915 143.238 247.148 143.47 247.497 143.47H279.635C279.984 143.47 280.217 143.121 280.217 142.888ZM280.217 146.264C280.217 145.915 279.984 145.682 279.635 145.682H247.497C247.148 145.682 246.915 145.915 246.915 146.264C246.915 146.614 247.148 146.847 247.497 146.847H279.635C279.984 146.847 280.217 146.614 280.217 146.264ZM280.217 149.641C280.217 149.291 279.984 149.059 279.635 149.059H247.497C247.148 149.059 246.915 149.291 246.915 149.641C246.915 149.99 247.148 150.223 247.497 150.223H279.635C279.984 150.223 280.217 149.99 280.217 149.641Z" fill="#D6ECF6"/>
</g>
<path d="M342.048 170.363H327.609L334.014 150.572C334.247 149.757 335.411 149.757 335.644 150.572L342.048 170.363Z" fill="url(#paint16_linear_3244_27559)"/>
<path d="M343.445 171.76H326.211C325.862 171.76 325.513 171.411 325.513 171.062C325.513 170.713 325.862 170.363 326.211 170.363H343.445C343.794 170.363 344.143 170.713 344.143 171.062C344.143 171.411 343.794 171.76 343.445 171.76Z" fill="white"/>
<mask id="mask0_3244_27559" style="mask-type:luminance" maskUnits="userSpaceOnUse" x="327" y="149" width="16" height="22">
<path d="M342.049 170.363H327.61L334.015 150.572C334.247 149.757 335.412 149.757 335.645 150.572L342.049 170.363Z" fill="white"/>
</mask>
<g mask="url(#mask0_3244_27559)">
<path d="M342.515 166.754H327.727V163.029H342.515V166.754ZM342.515 155.578H327.727V159.304H342.515V155.578Z" fill="white"/>
</g>
<path d="M217.107 170.363H202.668L209.072 150.572C209.305 149.757 210.47 149.757 210.702 150.572L217.107 170.363Z" fill="#FECD07"/>
<path d="M218.503 171.76H201.27C200.921 171.76 200.571 171.411 200.571 171.062C200.571 170.713 200.921 170.363 201.27 170.363H218.503C218.853 170.363 219.202 170.713 219.202 171.062C219.202 171.411 218.853 171.76 218.503 171.76Z" fill="white"/>
<path d="M217.106 170.363H202.667L209.071 150.572C209.304 149.757 210.469 149.757 210.701 150.572L217.106 170.363Z" fill="url(#paint17_linear_3244_27559)"/>
<mask id="mask1_3244_27559" style="mask-type:luminance" maskUnits="userSpaceOnUse" x="202" y="149" width="16" height="22">
<path d="M217.104 170.363H202.665L209.069 150.572C209.302 149.757 210.467 149.757 210.699 150.572L217.104 170.363Z" fill="white"/>
</mask>
<g mask="url(#mask1_3244_27559)">
<path d="M217.57 166.754H202.782V163.029H217.57V166.754ZM217.57 155.578H202.782V159.304H217.57V155.578Z" fill="white"/>
</g>
<path d="M413.311 170.363H398.872L405.276 150.572C405.509 149.757 406.674 149.757 406.906 150.572L413.311 170.363Z" fill="url(#paint18_linear_3244_27559)"/>
<path d="M414.707 171.76H397.474C397.125 171.76 396.775 171.411 396.775 171.062C396.775 170.713 397.125 170.363 397.474 170.363H414.707C415.057 170.363 415.406 170.713 415.406 171.062C415.406 171.411 415.173 171.76 414.707 171.76Z" fill="white"/>
<mask id="mask2_3244_27559" style="mask-type:luminance" maskUnits="userSpaceOnUse" x="398" y="149" width="16" height="22">
<path d="M413.311 170.363H398.872L405.276 150.572C405.509 149.757 406.674 149.757 406.906 150.572L413.311 170.363Z" fill="white"/>
</mask>
<g mask="url(#mask2_3244_27559)">
<path d="M413.777 166.754H398.989V163.029H413.777V166.754ZM413.777 155.578H398.989V159.304H413.777V155.578Z" fill="white"/>
</g>
<path d="M400.21 163.927V162.297H356.545V163.927H400.21Z" fill="#87A0FF"/>
<path d="M356.6 171.759C355.902 171.759 355.319 171.177 355.319 170.479V131.827C355.319 131.129 355.902 130.547 356.6 130.547C357.299 130.547 357.881 131.129 357.881 131.827V170.479C357.881 171.177 357.299 171.759 356.6 171.759Z" fill="#87A0FF"/>
<path d="M358.347 171.759H354.854C354.388 171.759 354.039 171.41 354.039 170.944C354.039 170.478 354.388 170.129 354.854 170.129H358.347C358.813 170.129 359.162 170.478 359.162 170.944C359.162 171.293 358.813 171.759 358.347 171.759Z" fill="#87A0FF"/>
<path d="M400.033 171.759C399.334 171.759 398.752 171.177 398.752 170.479V131.827C398.752 131.129 399.334 130.547 400.033 130.547C400.731 130.547 401.314 131.129 401.314 131.827V170.479C401.314 171.177 400.731 171.759 400.033 171.759Z" fill="#87A0FF"/>
<path d="M401.78 171.759H398.287C397.821 171.759 397.472 171.41 397.472 170.944C397.472 170.478 397.821 170.129 398.287 170.129H401.78C402.246 170.129 402.595 170.478 402.595 170.944C402.595 171.293 402.246 171.759 401.78 171.759Z" fill="#87A0FF"/>
<path d="M404.808 148.477H351.013V133.227H404.808V148.477ZM404.808 150.34H351.013V157.325H404.808V150.34Z" fill="#455FE8"/>
<mask id="mask3_3244_27559" style="mask-type:luminance" maskUnits="userSpaceOnUse" x="351" y="133" width="54" height="16">
<path d="M404.806 133.227H351.011V148.477H404.806V133.227Z" fill="white"/>
</mask>
<g mask="url(#mask3_3244_27559)">
<path d="M344.491 168.966H336.689L363.587 114.133H371.389L344.491 168.966ZM383.848 114.133H376.046L349.149 168.966H356.95L383.848 114.133ZM396.307 114.133H388.506L361.608 168.966H369.409L396.307 114.133ZM408.65 114.133H400.848L373.951 168.966H381.752L408.65 114.133ZM421.109 114.133H413.308L386.41 168.966H394.211L421.109 114.133Z" fill="url(#paint19_linear_3244_27559)"/>
</g>
<mask id="mask4_3244_27559" style="mask-type:luminance" maskUnits="userSpaceOnUse" x="351" y="150" width="54" height="8">
<path d="M404.807 150.34H351.012V157.325H404.807V150.34Z" fill="white"/>
</mask>
<g mask="url(#mask4_3244_27559)">
<path d="M344.492 168.966H336.69L363.588 114.133H371.39L344.492 168.966ZM383.849 114.133H376.047L349.15 168.966H356.951L383.849 114.133ZM396.308 114.133H388.507L361.609 168.966H369.41L396.308 114.133ZM408.651 114.133H400.849L373.952 168.966H381.753L408.651 114.133ZM421.11 114.133H413.309L386.411 168.966H394.212L421.11 114.133Z" fill="url(#paint20_linear_3244_27559)"/>
</g>
<path d="M286.738 142.191C285.573 142.307 284.642 141.609 283.943 141.958C283.244 142.307 281.614 144.403 284.875 144.287C288.135 144.17 287.553 144.287 287.553 144.287L286.738 142.191Z" fill="#FFC0B3"/>
<path d="M290.347 137.418C289.183 137.534 288.251 136.835 287.552 137.185C286.854 137.534 285.224 139.629 288.484 139.513C291.744 139.397 291.162 139.513 291.162 139.513L290.347 137.418Z" fill="#FFC0B3"/>
<path d="M297.916 140.794C296.169 136.37 295.82 134.391 295.005 133.926C296.169 136.953 295.703 139.514 294.656 140.911C293.608 142.424 287.203 144.636 287.203 144.636L286.621 142.308C286.621 142.308 289.765 140.329 291.395 138.932C293.025 137.535 288.135 128.454 291.046 125.427C291.046 125.427 291.744 124.729 292.094 124.496C294.306 122.866 296.519 122.982 296.519 122.982C296.519 122.982 303.389 123.332 307.93 136.254C304.204 138.932 302.341 139.165 297.916 140.794Z" fill="#455FE8"/>
<path d="M293.492 122.75C293.957 123.914 294.889 125.195 294.889 125.777C294.772 126.592 293.608 127.058 293.259 126.825C292.444 126.126 291.745 124.613 291.861 124.496C291.978 124.38 293.492 122.75 293.492 122.75Z" fill="#FFC0B3"/>
<path d="M287.669 121.934C289.066 124.03 292.56 126.708 293.724 123.797C295.005 120.887 293.608 118.209 293.608 118.209C293.608 118.209 284.292 112.039 287.669 121.934Z" fill="#FFC0B3"/>
<path d="M292.443 122.051C292.21 120.887 293.491 119.839 293.84 120.887C294.073 122.168 293.607 122.051 293.607 122.517C293.607 123.099 293.84 123.215 293.957 123.448C296.635 121.469 294.655 115.765 291.977 115.066C290.696 114.368 288.833 113.902 286.97 115.997C285.34 117.86 286.388 119.374 286.737 122.168C290.464 121.702 290.231 119.956 291.395 119.956C291.977 120.072 292.21 122.168 292.443 122.051Z" fill="#0B257A"/>
<path d="M295.587 137.884C291.511 133.577 290.696 125.195 290.696 125.195L291.511 124.729C291.511 124.729 293.491 130.899 293.957 131.132C295.005 131.598 296.285 130.317 296.285 130.317C295.47 128.105 295.005 125.777 294.888 123.099L295.82 122.75C297.566 130.55 300.244 130.666 303.272 135.207L306.765 132.296C306.765 132.296 308.395 133.461 308.978 139.049C309.676 146.034 310.841 152.786 310.841 152.786L318.06 167.338L314.683 168.037L306.066 154.416L302.34 143.24L301.06 154.765L302.573 168.735H298.964L295.82 154.532C295.82 154.532 296.751 147.896 296.984 140.679C296.169 137.186 296.635 138.932 295.587 137.884Z" fill="url(#paint21_linear_3244_27559)"/>
<path d="M297.917 131.715L294.074 134.276C294.074 134.276 295.704 138.584 296.752 138.234C297.917 137.769 301.294 135.673 301.061 134.742C300.944 133.81 297.917 131.715 297.917 131.715Z" fill="#FB7C09"/>
<path d="M296.635 122.867C303.855 123.449 301.642 137.652 300.711 139.049C299.779 140.446 289.998 140.214 289.998 140.214V137.07C289.998 137.07 296.752 137.07 298.032 136.139C299.197 135.208 297.8 127.175 297.8 127.175L296.635 122.867Z" fill="#455FE8"/>
<path d="M314.8 167.921C314.8 167.921 309.21 170.948 309.56 171.53C309.909 172.229 319.108 169.9 319.341 169.435C319.574 168.853 318.06 167.223 318.06 167.223L314.8 167.921Z" fill="#0B257A"/>
<path d="M302.574 168.617H298.964C298.964 168.617 293.375 170.829 293.608 171.411C293.841 171.993 303.039 172.11 303.272 171.528C303.505 170.946 302.574 168.617 302.574 168.617Z" fill="#0B257A"/>
<path d="M295.006 118.908C289.882 120.072 286.04 121.119 286.04 121.119C285.574 121.236 284.875 115.764 288.718 114.716C294.074 113.203 295.006 118.908 295.006 118.908Z" fill="#FEB605"/>
<path d="M285.807 120.303C282.43 124.611 290.115 120.885 290.814 120.07L285.807 120.303Z" fill="#FEB605"/>
<path d="M201.736 124.029C203.483 122.981 205.928 121.468 205.812 121.817C205.812 122.166 204.414 123.097 204.298 123.447C204.182 123.796 205.113 124.378 204.997 124.727C204.88 125.077 201.736 126.474 201.736 126.474V124.029Z" fill="#FFC0B3"/>
<path d="M189.858 131.246C188.461 126.939 187.413 125.309 187.762 124.378C188.81 127.288 190.091 129.384 191.721 129.849C193.352 130.315 202.9 126.822 202.9 126.822L201.852 123.679C201.852 123.679 195.448 125.891 193.468 125.891C191.489 125.891 189.509 116.228 185.434 115.763C185.434 115.763 184.502 115.646 184.036 115.763C181.475 115.996 179.844 117.393 179.844 117.393C179.844 117.393 178.214 125.891 177.981 133.808C182.639 133.342 185.55 132.76 189.858 131.246Z" fill="#455FE8"/>
<path d="M181.591 114.25C182.406 116.695 182.289 118.325 183.337 118.325C184.385 118.325 184.153 114.483 183.92 114.483C183.803 114.599 181.591 114.25 181.591 114.25Z" fill="#FFC0B3"/>
<path d="M186.016 110.526C186.016 113.087 184.386 117.162 181.824 115.299C179.262 113.436 179.029 110.526 179.029 110.526C179.029 110.526 183.687 100.281 186.016 110.526Z" fill="#FFC0B3"/>
<path d="M181.009 112.389C180.427 110.876 178.564 112.389 180.31 113.553C178.331 113.903 176.817 109.013 178.796 106.918C179.611 105.637 180.776 104.24 183.57 105.055C186.016 105.753 185.783 107.616 186.947 110.177C183.454 111.691 181.824 109.944 180.892 110.643C180.427 110.992 181.242 112.389 181.009 112.389Z" fill="#0B257A"/>
<path d="M190.208 129.619C189.392 125.893 186.132 115.648 186.132 115.648H185.433C185.433 115.648 186.831 122.168 186.365 122.401C185.317 122.866 182.522 123.099 182.522 123.099L181.009 116.231L179.844 116.813C179.844 116.813 180.892 123.449 181.009 126.708C181.125 129.968 177.748 131.016 177.748 131.016C177.748 131.016 177.632 136.837 177.981 139.398C178.447 141.959 179.728 151.505 179.728 151.505L176.584 169.201H179.844L185.201 151.505L185.899 139.049L187.995 151.505L189.16 168.852L192.071 169.085L193.235 150.574C193.468 150.691 191.023 133.344 190.208 129.619Z" fill="url(#paint22_linear_3244_27559)"/>
<path d="M192.886 128.221L191.023 136.72C190.907 137.069 191.256 137.302 191.489 137.302L197.777 136.603C198.01 136.603 198.126 136.487 198.126 136.254L199.756 127.988C199.756 127.639 199.523 127.406 199.29 127.406L193.236 127.872C193.119 127.872 193.003 128.105 192.886 128.221Z" fill="#FECD07"/>
<path d="M191.722 131.48C192.769 131.596 193.701 130.898 194.4 131.247C194.982 131.596 196.612 133.576 193.585 133.459C190.557 133.343 191.023 133.459 191.023 133.459L191.722 131.48Z" fill="#FFC0B3"/>
<path d="M182.987 126.826L187.296 125.895C187.296 125.895 189.275 129.853 188.227 130.318C187.179 130.784 183.569 131.832 182.987 131.133C182.405 130.318 182.987 126.826 182.987 126.826Z" fill="#FB7C09"/>
<path d="M179.844 117.16C175.769 119.139 175.303 131.13 176.118 132.411C176.933 133.692 191.838 134.39 191.838 134.39L192.304 131.014C192.304 131.014 181.125 129.966 179.961 129.035C178.796 128.22 180.194 121.468 180.194 121.468L179.844 117.16Z" fill="#455FE8"/>
<path d="M180.194 168.27C180.194 168.27 185.667 170.947 185.434 171.646C185.318 172.344 176.585 171.18 176.235 170.714C175.886 170.249 176.934 168.386 176.934 168.386L180.194 168.27Z" fill="#0B257A"/>
<path d="M189.276 168.968L192.303 168.852C192.303 168.852 198.009 171.064 197.776 171.646C197.543 172.228 189.043 172.228 188.81 171.762C188.577 171.18 189.276 168.968 189.276 168.968Z" fill="#0B257A"/>
<path d="M178.098 111.806C183.105 110.059 186.948 109.012 186.948 109.012C187.297 108.895 185.085 103.889 181.242 104.937C175.886 106.451 178.098 111.806 178.098 111.806Z" fill="#FEB605"/>
<path d="M186.715 108.082C191.838 110.061 183.338 110.876 182.29 110.41L186.715 108.082Z" fill="#FEB605"/>
<path d="M195.214 127.405L195.098 128.22L198.358 127.987L198.591 127.172L195.214 127.405Z" fill="#87A0FF"/>
<defs>
<linearGradient id="paint0_linear_3244_27559" x1="212.357" y1="187.047" x2="212.357" y2="137.811" gradientUnits="userSpaceOnUse">
<stop stop-color="#2134A3"/>
<stop offset="1" stop-color="#5351F0"/>
</linearGradient>
<linearGradient id="paint1_linear_3244_27559" x1="213.697" y1="9.1516" x2="213.697" y2="136" gradientUnits="userSpaceOnUse">
<stop offset="0.00060096" stop-color="#7DBCFF"/>
<stop offset="1" stop-color="#496DFF"/>
</linearGradient>
<linearGradient id="paint2_linear_3244_27559" x1="65.8799" y1="148.008" x2="65.8799" y2="112.541" gradientUnits="userSpaceOnUse">
<stop stop-color="#2134A3"/>
<stop offset="1" stop-color="#5351F0"/>
</linearGradient>
<linearGradient id="paint3_linear_3244_27559" x1="68.362" y1="161.343" x2="68.362" y2="126.454" gradientUnits="userSpaceOnUse">
<stop stop-color="#FECD07"/>
<stop offset="0.2528" stop-color="#FDBD07"/>
<stop offset="0.7431" stop-color="#FC9408"/>
<stop offset="1" stop-color="#FB7C09"/>
</linearGradient>
<linearGradient id="paint4_linear_3244_27559" x1="161.339" y1="145.499" x2="161.339" y2="128.448" gradientUnits="userSpaceOnUse">
<stop stop-color="#2134A3"/>
<stop offset="1" stop-color="#5351F0"/>
</linearGradient>
<linearGradient id="paint5_linear_3244_27559" x1="136.154" y1="101.835" x2="136.154" y2="155.104" gradientUnits="userSpaceOnUse">
<stop stop-color="#FECD07"/>
<stop offset="0.2528" stop-color="#FDBD07"/>
<stop offset="0.7431" stop-color="#FC9408"/>
<stop offset="1" stop-color="#FB7C09"/>
</linearGradient>
<linearGradient id="paint6_linear_3244_27559" x1="105.506" y1="147.887" x2="63.3845" y2="147.887" gradientUnits="userSpaceOnUse">
<stop stop-color="#2134A3"/>
<stop offset="1" stop-color="#5351F0"/>
</linearGradient>
<linearGradient id="paint7_linear_3244_27559" x1="94.3354" y1="143.934" x2="183.645" y2="143.934" gradientUnits="userSpaceOnUse">
<stop stop-color="#2134A3"/>
<stop offset="1" stop-color="#5351F0"/>
</linearGradient>
<linearGradient id="paint8_linear_3244_27559" x1="131.857" y1="118.646" x2="131.857" y2="164.768" gradientUnits="userSpaceOnUse">
<stop offset="0.00060096" stop-color="#7DBCFF"/>
<stop offset="1" stop-color="#496DFF"/>
</linearGradient>
<linearGradient id="paint9_linear_3244_27559" x1="54.2568" y1="118.646" x2="54.2568" y2="164.768" gradientUnits="userSpaceOnUse">
<stop offset="0.00060096" stop-color="#7DBCFF"/>
<stop offset="1" stop-color="#496DFF"/>
</linearGradient>
<linearGradient id="paint10_linear_3244_27559" x1="131.856" y1="169.242" x2="131.856" y2="143.342" gradientUnits="userSpaceOnUse">
<stop stop-color="#2134A3"/>
<stop offset="1" stop-color="#5351F0"/>
</linearGradient>
<linearGradient id="paint11_linear_3244_27559" x1="54.2556" y1="169.62" x2="54.2556" y2="138.42" gradientUnits="userSpaceOnUse">
<stop stop-color="#2134A3"/>
<stop offset="1" stop-color="#5351F0"/>
</linearGradient>
<linearGradient id="paint12_linear_3244_27559" x1="62.9768" y1="84.5867" x2="62.9768" y2="140.913" gradientUnits="userSpaceOnUse">
<stop stop-color="#FECD07"/>
<stop offset="0.2528" stop-color="#FDBD07"/>
<stop offset="0.7431" stop-color="#FC9408"/>
<stop offset="1" stop-color="#FB7C09"/>
</linearGradient>
<linearGradient id="paint13_linear_3244_27559" x1="345.827" y1="197.931" x2="345.827" y2="134.004" gradientUnits="userSpaceOnUse">
<stop stop-color="#2134A3"/>
<stop offset="1" stop-color="#5351F0"/>
</linearGradient>
<linearGradient id="paint14_linear_3244_27559" x1="251.914" y1="74.4858" x2="251.914" y2="92.6174" gradientUnits="userSpaceOnUse">
<stop offset="0.00060096" stop-color="#87A0FF"/>
<stop offset="1" stop-color="#5351F0"/>
</linearGradient>
<linearGradient id="paint15_linear_3244_27559" x1="251.914" y1="88.8707" x2="251.914" y2="109.469" gradientUnits="userSpaceOnUse">
<stop stop-color="#FECD07"/>
<stop offset="0.2528" stop-color="#FDBD07"/>
<stop offset="0.7431" stop-color="#FC9408"/>
<stop offset="1" stop-color="#FB7C09"/>
</linearGradient>
<linearGradient id="paint16_linear_3244_27559" x1="334.792" y1="144.825" x2="334.792" y2="175.404" gradientUnits="userSpaceOnUse">
<stop stop-color="#FECD07"/>
<stop offset="0.2528" stop-color="#FDBD07"/>
<stop offset="0.7431" stop-color="#FC9408"/>
<stop offset="1" stop-color="#FB7C09"/>
</linearGradient>
<linearGradient id="paint17_linear_3244_27559" x1="209.838" y1="146.434" x2="209.838" y2="179.377" gradientUnits="userSpaceOnUse">
<stop stop-color="#FECD07"/>
<stop offset="0.2528" stop-color="#FDBD07"/>
<stop offset="0.7431" stop-color="#FC9408"/>
<stop offset="1" stop-color="#FB7C09"/>
</linearGradient>
<linearGradient id="paint18_linear_3244_27559" x1="406.119" y1="141.91" x2="406.119" y2="179.113" gradientUnits="userSpaceOnUse">
<stop stop-color="#FECD07"/>
<stop offset="0.2528" stop-color="#FDBD07"/>
<stop offset="0.7431" stop-color="#FC9408"/>
<stop offset="1" stop-color="#FB7C09"/>
</linearGradient>
<linearGradient id="paint19_linear_3244_27559" x1="336.717" y1="141.556" x2="421.086" y2="141.556" gradientUnits="userSpaceOnUse">
<stop stop-color="#FECD07"/>
<stop offset="0.2528" stop-color="#FDBD07"/>
<stop offset="0.7431" stop-color="#FC9408"/>
<stop offset="1" stop-color="#FB7C09"/>
</linearGradient>
<linearGradient id="paint20_linear_3244_27559" x1="336.718" y1="141.556" x2="421.086" y2="141.556" gradientUnits="userSpaceOnUse">
<stop stop-color="#FECD07"/>
<stop offset="0.2528" stop-color="#FDBD07"/>
<stop offset="0.7431" stop-color="#FC9408"/>
<stop offset="1" stop-color="#FB7C09"/>
</linearGradient>
<linearGradient id="paint21_linear_3244_27559" x1="297.963" y1="126.413" x2="308.654" y2="168.295" gradientUnits="userSpaceOnUse">
<stop stop-color="#FECD07"/>
<stop offset="0.2528" stop-color="#FDBD07"/>
<stop offset="0.7431" stop-color="#FC9408"/>
<stop offset="1" stop-color="#FB7C09"/>
</linearGradient>
<linearGradient id="paint22_linear_3244_27559" x1="184.933" y1="110.695" x2="185.136" y2="161.783" gradientUnits="userSpaceOnUse">
<stop stop-color="#FECD07"/>
<stop offset="0.2528" stop-color="#FDBD07"/>
<stop offset="0.7431" stop-color="#FC9408"/>
<stop offset="1" stop-color="#FB7C09"/>
</linearGradient>
</defs>
</svg>
