<svg width="23" height="23" viewBox="0 0 23 23" fill="none" xmlns="http://www.w3.org/2000/svg">
<path fill-rule="evenodd" clip-rule="evenodd" d="M13.3179 0.717427C12.1966 -0.238114 10.5475 -0.238114 9.42622 0.717427L7.8486 2.06186C7.68844 2.19835 7.4893 2.28084 7.27953 2.29758L5.21333 2.46246C3.74481 2.57965 2.57867 3.74578 2.46148 5.21431L2.2966 7.28051C2.27986 7.49028 2.19737 7.68942 2.06088 7.84958L0.716451 9.4272C-0.23909 10.5485 -0.23909 12.1976 0.71645 13.3189L2.06088 14.8965C2.19737 15.0567 2.27986 15.2558 2.2966 15.4656L2.46148 17.5318C2.57867 19.0003 3.74481 20.1664 5.21333 20.2836L7.27953 20.4485C7.4893 20.4653 7.68844 20.5477 7.8486 20.6842L9.42622 22.0287C10.5475 22.9842 12.1967 22.9842 13.3179 22.0287L14.8955 20.6842C15.0557 20.5477 15.2548 20.4653 15.4646 20.4485L17.5308 20.2836C18.9993 20.1664 20.1655 19.0003 20.2827 17.5318L20.4475 15.4656C20.4643 15.2558 20.5468 15.0567 20.6833 14.8965L22.0277 13.3189C22.9832 12.1976 22.9832 10.5485 22.0277 9.4272L20.6833 7.84958C20.5468 7.68942 20.4643 7.49028 20.4475 7.28051L20.2827 5.21431C20.1655 3.74578 18.9993 2.57965 17.5308 2.46246L15.4646 2.29758C15.2548 2.28084 15.0557 2.19835 14.8955 2.06186L13.3179 0.717427Z" fill="#007DFF"/>
<path d="M15.7747 9L9.74204 14.4999L7 12.5" stroke="#FDFDFD" stroke-opacity="0.99" stroke-width="2" stroke-linecap="round" stroke-linejoin="round"/>
</svg>
