<svg width="20" height="20" viewBox="0 0 20 20" fill="none" xmlns="http://www.w3.org/2000/svg">
<path d="M3.33366 9.16797H16.667M3.33366 9.16797C2.41318 9.16797 1.66699 8.42178 1.66699 7.5013V6.66797C1.66699 5.74749 2.41318 5.0013 3.33366 5.0013H16.667C17.5875 5.0013 18.3337 5.74749 18.3337 6.66797V7.5013C18.3337 8.42178 17.5875 9.16797 16.667 9.16797M3.33366 9.16797L3.33366 16.668C3.33366 17.5884 4.07985 18.3346 5.00033 18.3346H15.0003C15.9208 18.3346 16.667 17.5884 16.667 16.668V9.16797M10.0003 5.0013H13.3337C14.2541 5.0013 15.0003 4.25511 15.0003 3.33464C15.0003 2.41416 14.2541 1.66797 13.3337 1.66797C11.4927 1.66797 10.0003 3.16035 10.0003 5.0013ZM10.0003 5.0013H6.66699C5.74652 5.0013 5.00033 4.25511 5.00033 3.33464C5.00033 2.41416 5.74652 1.66797 6.66699 1.66797C8.50794 1.66797 10.0003 3.16035 10.0003 5.0013ZM10.0003 5.0013V18.3346" stroke="#0341A3" stroke-width="1.5" stroke-linecap="round"/>
</svg>
