<svg width="22" height="18" viewBox="0 0 22 18" fill="none" xmlns="http://www.w3.org/2000/svg">
<path fill-rule="evenodd" clip-rule="evenodd" d="M12.4246 0.437505C12.2035 0.242509 11.8887 0.195138 11.62 0.316437C11.3513 0.437735 11.1786 0.705202 11.1786 1.00001V4.76515C8.78889 4.86264 6.1607 5.45108 4.0667 7.10221C1.77895 8.90612 0.25 11.8813 0.25 16.5C0.25 16.8229 0.456573 17.1095 0.762829 17.2115C1.06909 17.3136 1.40631 17.2083 1.6 16.95C2.98166 15.1078 4.44347 14.2054 6.05331 13.7441C7.5654 13.3108 9.23089 13.2572 11.1786 13.2508V17C11.1786 17.2948 11.3513 17.5623 11.62 17.6836C11.8887 17.8049 12.2035 17.7575 12.4246 17.5625L20.6456 10.3125C21.4356 9.61583 21.4356 8.38419 20.6456 7.68749L12.4246 0.437505Z" fill="#007DFF"/>
</svg>
