<svg width="20" height="20" viewBox="0 0 20 20" fill="none" xmlns="http://www.w3.org/2000/svg">
<path d="M3.33317 9.16675H16.6665M3.33317 9.16675C2.4127 9.16675 1.6665 8.42056 1.6665 7.50008V6.66675C1.6665 5.74627 2.4127 5.00008 3.33317 5.00008H16.6665C17.587 5.00008 18.3332 5.74627 18.3332 6.66675V7.50008C18.3332 8.42056 17.587 9.16675 16.6665 9.16675M3.33317 9.16675L3.33317 16.6667C3.33317 17.5872 4.07936 18.3334 4.99984 18.3334H14.9998C15.9203 18.3334 16.6665 17.5872 16.6665 16.6667V9.16675M9.99984 5.00008H13.3332C14.2536 5.00008 14.9998 4.25389 14.9998 3.33341C14.9998 2.41294 14.2536 1.66675 13.3332 1.66675C11.4922 1.66675 9.99984 3.15913 9.99984 5.00008ZM9.99984 5.00008H6.6665C5.74603 5.00008 4.99984 4.25389 4.99984 3.33341C4.99984 2.41294 5.74603 1.66675 6.6665 1.66675C8.50745 1.66675 9.99984 3.15913 9.99984 5.00008ZM9.99984 5.00008V18.3334" stroke="white" stroke-width="1.5" stroke-linecap="round"/>
</svg>
