<svg width="35" height="35" viewBox="0 0 35 35" fill="none" xmlns="http://www.w3.org/2000/svg">
<g clip-path="url(#clip0_4103_114020)">
<path fill-rule="evenodd" clip-rule="evenodd" d="M26.2662 8.46526C26.7038 8.58252 26.9635 9.03232 26.8463 9.46993L26.4459 10.964C26.3287 11.4016 25.8789 11.6613 25.4413 11.5441C25.0037 11.4268 24.744 10.977 24.8612 10.5394L25.2616 9.04531C25.3788 8.6077 25.8286 8.348 26.2662 8.46526ZM21.7315 10.3205C20.9956 9.04587 19.2364 8.84703 18.2345 9.9252L11.1815 17.5159C11.4275 17.7391 11.6436 18.0038 11.8186 18.3069L14.553 23.043C14.728 23.3461 14.8492 23.6656 14.9194 23.9903L25.0198 21.6776C26.4544 21.3491 27.1618 19.7261 26.426 18.4515L21.7315 10.3205ZM12.9592 23.7641L10.2248 19.0281C9.77176 18.2434 8.76837 17.9745 7.98367 18.4275C7.19897 18.8806 6.93012 19.884 7.38316 20.6687L10.1175 25.4048C10.5706 26.1895 11.574 26.4583 12.3587 26.0053C13.1434 25.5522 13.4122 24.5488 12.9592 23.7641ZM19.3698 28.5981L17.288 24.9922L20.6345 24.2259L22.2115 26.9574C22.6645 27.7421 22.3957 28.7455 21.611 29.1986C20.8263 29.6516 19.8229 29.3828 19.3698 28.5981ZM28.0534 13.7483C27.6158 13.631 27.166 13.8907 27.0487 14.3283C26.9315 14.7659 27.1912 15.2158 27.6288 15.333L29.1229 15.7334C29.5605 15.8506 30.0103 15.5909 30.1275 15.1533C30.2448 14.7157 29.9851 14.2659 29.5475 14.1486L28.0534 13.7483Z" fill="#0341A3"/>
</g>
<defs>
<clipPath id="clip0_4103_114020">
<rect width="26.25" height="26.25" fill="white" transform="translate(4.375 5.46875)"/>
</clipPath>
</defs>
</svg>
