<svg width="16" height="16" viewBox="0 0 16 16" fill="none" xmlns="http://www.w3.org/2000/svg">
<path fill-rule="evenodd" clip-rule="evenodd" d="M16 8C16 12.4183 12.4183 16 8 16C3.58172 16 0 12.4183 0 8C0 3.58172 3.58172 0 8 0C12.4183 0 16 3.58172 16 8ZM8 4.6C7.44771 4.6 7 5.04771 7 5.6C7 5.93137 6.73137 6.2 6.4 6.2C6.06863 6.2 5.8 5.93137 5.8 5.6C5.8 4.38497 6.78497 3.4 8 3.4C9.21503 3.4 10.2 4.38497 10.2 5.6C10.2 6.03707 10.0719 6.44606 9.85106 6.78931C9.71272 7.0043 9.55098 7.20955 9.40184 7.39491L9.3214 7.4946C9.19766 7.64776 9.08407 7.78836 8.9791 7.93262C8.72023 8.2884 8.6 8.55576 8.6 8.8V9.2C8.6 9.53137 8.33137 9.8 8 9.8C7.66863 9.8 7.4 9.53137 7.4 9.2V8.8C7.4 8.16059 7.71393 7.63182 8.00877 7.2266C8.13335 7.05538 8.26987 6.88651 8.394 6.73296L8.46691 6.64263C8.61507 6.45851 8.74118 6.29652 8.84192 6.13996C8.94193 5.98455 9 5.79997 9 5.6C9 5.04771 8.55229 4.6 8 4.6ZM8.6 11.2C8.6 10.8686 8.33137 10.6 8 10.6C7.66863 10.6 7.4 10.8686 7.4 11.2V12C7.4 12.3314 7.66863 12.6 8 12.6C8.33137 12.6 8.6 12.3314 8.6 12V11.2Z" fill="#28303F"/>
</svg>
