<svg width="35" height="35" viewBox="0 0 35 35" fill="none" xmlns="http://www.w3.org/2000/svg">
<path fill-rule="evenodd" clip-rule="evenodd" d="M21.4956 21.6442C21.3445 21.5089 21.1394 21.3344 20.9235 21.1493C20.4538 20.7505 19.9321 20.3071 19.6892 20.0063L19.6658 20.0223C19.1692 20.3588 18.5556 20.5831 17.7172 20.5813C16.9345 20.5795 16.3462 20.3641 15.8622 20.0454C15.7434 19.9671 15.6337 19.8834 15.5275 19.7962C15.2882 20.106 14.7016 20.5991 14.1799 21.0371C13.8614 21.3041 13.5681 21.5498 13.4134 21.6994C12.8736 22.367 12.3968 23.0791 11.9956 23.875L13.6563 23.834L17.4761 27.1205L21.2959 23.834L22.9566 23.875C22.5464 23.056 22.0552 22.3278 21.4956 21.6442ZM14.5829 18.201C15.0435 18.4965 15.5509 18.7333 16.1051 18.9078C16.1608 18.7832 16.2382 18.6728 16.3498 18.5873C16.6844 18.331 17.665 18.3559 17.9673 18.6034C18.221 18.8117 18.2246 19.2888 18.0375 19.538C17.7136 19.9689 16.5369 19.741 15.8334 19.5523C15.9395 19.6431 16.0511 19.7285 16.168 19.8069C16.5747 20.0757 17.0677 20.2573 17.719 20.2573C18.4243 20.2591 18.9407 20.0704 19.3599 19.7873C19.4373 19.7339 19.5128 19.6787 19.5866 19.6182C19.61 19.579 19.646 19.5469 19.691 19.5291C19.9788 19.2763 20.2289 18.9808 20.4772 18.6853L20.9199 18.1601C20.9738 18.096 20.9918 18.0746 21.0116 18.0515C21.0656 17.9891 21.1268 17.9179 21.1861 17.8449C21.2023 17.8253 21.2239 17.8075 21.2491 17.7951C21.3211 17.5636 21.3751 17.3215 21.4129 17.0669C21.5388 16.2355 21.5424 15.5892 21.1646 14.8237C20.8371 14.1632 20.3765 13.8196 19.8745 13.5739C20.4161 14.1721 20.8641 14.7525 20.7471 15.2296C20.085 14.5103 19.4031 13.8819 18.696 13.3638C17.2188 12.6089 16.3498 11.5852 15.9629 10.3461C13.7732 12.5092 13.3918 15.0409 14.2032 17.7951C14.232 17.8075 14.2572 17.8254 14.2752 17.8467L14.5829 18.201ZM14.9553 19.2336C14.4084 18.963 13.8938 18.5642 13.408 18.1672L12.5191 18.1903C12.3968 18.0515 12.2942 17.8912 12.2079 17.7114C12.1377 17.7043 12.0675 17.69 11.9992 17.6687C11.1445 17.4034 10.4356 15.5234 10.576 14.6368C10.6551 14.1347 10.835 13.9531 11.1265 13.8427C11.1121 13.8018 11.1049 13.759 11.1049 13.7128V11.8202C11.1049 11.1081 11.3208 10.4084 11.6717 9.77463C12.0549 9.07852 12.6019 8.45718 13.1993 7.98717C14.4192 7.024 15.9989 6.54687 17.5696 6.56289C19.1278 6.57891 20.6824 7.08275 21.8717 8.08152C22.4456 8.564 22.9296 9.19602 23.2679 9.89391C23.5971 10.574 23.7879 11.3182 23.7879 12.0499V13.6131C23.7879 13.8356 23.6061 14.0154 23.3812 14.0154C23.2517 14.0154 23.1365 13.9567 23.0628 13.8623C23.2625 15.3471 23.0754 16.8746 22.4762 18.1423H21.4632C21.4398 18.169 21.4183 18.1957 21.3967 18.2206L21.3067 18.3256L20.8641 18.8508C20.6068 19.157 20.3459 19.465 20.0382 19.7339C20.2002 19.944 20.7399 20.4015 21.2185 20.8092C21.3733 20.941 21.5244 21.0691 21.6558 21.1831C22.9674 21.6887 24.2485 22.2068 25.2435 22.8228C26.0117 23.2981 26.4076 23.6578 26.7188 24.2346C27.21 25.1461 27.5969 26.1574 27.712 27.3573C27.8146 28.4309 27.8056 28.3828 26.7638 28.4042C21.2725 28.5128 13.6257 28.3134 8.25311 28.4042C7.27612 28.4202 7.17536 28.4896 7.27792 27.1134C7.61078 25.552 7.42186 25.7586 8.24412 24.2346C8.55539 23.6578 8.95122 23.2999 9.71951 22.8228C10.7199 22.2014 12.0082 21.6816 13.3288 21.1742C13.4907 21.0317 13.6869 20.8662 13.8938 20.6917C14.4695 20.2075 15.1299 19.6538 15.2036 19.49C15.1173 19.4081 15.0345 19.3226 14.9553 19.2336ZM22.9728 13.3371V12.0517C22.9728 11.4393 22.8127 10.8126 22.5356 10.2411C22.2477 9.64467 21.8339 9.107 21.3463 8.69574C20.3045 7.81981 18.9371 7.37829 17.5607 7.36405C16.168 7.3498 14.7718 7.76996 13.7013 8.61563C13.1831 9.02511 12.7099 9.55921 12.3806 10.1592C12.0927 10.6808 11.9164 11.2488 11.9164 11.822V13.4404C12.3572 11.3413 13.2568 9.81202 14.6549 8.8987C15.684 8.22573 16.2976 8.18835 17.4977 8.18835C18.5466 8.18835 19.189 8.1652 20.0832 8.74737C21.627 9.75149 22.6058 11.482 22.9728 13.3371ZM16.1914 25.1693L16.9489 22.57L16.5783 22.1676C16.4109 21.9255 16.3749 21.7154 16.4667 21.5338C16.6682 21.1404 17.0838 21.2133 17.4725 21.2133C17.8791 21.2133 18.3811 21.1368 18.5089 21.6406C18.552 21.8098 18.4981 21.986 18.3793 22.1676L18.0087 22.57L18.7662 25.1693L17.4797 26.1752L16.1914 25.1693Z" fill="white"/>
</svg>
