<svg width="24" height="24" viewBox="0 0 24 24" fill="none" xmlns="http://www.w3.org/2000/svg">
<path d="M10.8 9.6H13.2C14.8971 9.6 15.7456 9.6 16.2728 10.1272C16.8 10.6544 16.8 11.5029 16.8 13.2V20.4C16.8 18.7029 16.8 17.8544 17.3272 17.3272C17.8544 16.8 18.7029 16.8 20.4 16.8C22.0971 16.8 22.9456 16.8 23.4728 17.3272C24 17.8544 24 18.7029 24 20.4V24H16.8H7.2H0C0 22.3029 0 21.4544 0.527208 20.9272C1.05442 20.4 1.90294 20.4 3.6 20.4C5.29706 20.4 6.14558 20.4 6.67279 20.9272C7.2 21.4544 7.2 22.3029 7.2 24V13.2C7.2 11.5029 7.2 10.6544 7.72721 10.1272C8.25442 9.6 9.10294 9.6 10.8 9.6Z" fill="#0341A3"/>
<path d="M10.9751 1.22702C11.4311 0.409005 11.6591 0 12 0C12.3409 0 12.5689 0.409005 13.0249 1.22701L13.1428 1.43864C13.2724 1.6711 13.3372 1.78732 13.4382 1.86401C13.5392 1.9407 13.6651 1.96916 13.9167 2.0261L14.1458 2.07793C15.0313 2.27828 15.474 2.37845 15.5793 2.71718C15.6847 3.05591 15.3828 3.40887 14.7792 4.11477L14.623 4.2974C14.4514 4.498 14.3657 4.5983 14.3271 4.72238C14.2885 4.84646 14.3015 4.98028 14.3274 5.24792L14.351 5.49158C14.4423 6.43342 14.4879 6.90433 14.2121 7.11368C13.9364 7.32302 13.5218 7.13216 12.6928 6.75042L12.4783 6.65166C12.2427 6.54318 12.1249 6.48895 12 6.48895C11.8751 6.48895 11.7573 6.54318 11.5217 6.65166L11.3072 6.75042C10.4782 7.13216 10.0636 7.32302 9.78785 7.11368C9.51208 6.90433 9.55772 6.43342 9.64898 5.49158L9.6726 5.24792C9.69853 4.98028 9.7115 4.84646 9.67291 4.72238C9.63433 4.5983 9.54855 4.498 9.37701 4.2974L9.22084 4.11477C8.61717 3.40887 8.31534 3.05591 8.42067 2.71718C8.52601 2.37845 8.96875 2.27828 9.85423 2.07793L10.0833 2.0261C10.3349 1.96916 10.4608 1.9407 10.5618 1.86401C10.6628 1.78732 10.7276 1.6711 10.8572 1.43864L10.9751 1.22702Z" fill="#0341A3"/>
<path d="M16.8 24V20.4C16.8 18.7029 16.8 17.8544 17.3272 17.3272C17.8544 16.8 18.7029 16.8 20.4 16.8C22.0971 16.8 22.9456 16.8 23.4728 17.3272C24 17.8544 24 18.7029 24 20.4V24H16.8H7.2H0C0 22.3029 0 21.4544 0.527208 20.9272C1.05442 20.4 1.90294 20.4 3.6 20.4C5.29706 20.4 6.14558 20.4 6.67279 20.9272C7.2 21.4544 7.2 22.3029 7.2 24H16.8Z" fill="#0341A3"/>
<path d="M10.9755 1.22702C11.4315 0.409005 11.6595 0 12.0004 0C12.3413 0 12.5693 0.409005 13.0253 1.22701L13.1432 1.43864C13.2728 1.6711 13.3376 1.78732 13.4386 1.86401C13.5396 1.9407 13.6654 1.96916 13.9171 2.0261L14.1462 2.07793C15.0316 2.27828 15.4744 2.37845 15.5797 2.71718C15.6851 3.05591 15.3832 3.40887 14.7796 4.11477L14.6234 4.2974C14.4518 4.498 14.3661 4.59829 14.3275 4.72238C14.2889 4.84646 14.3019 4.98028 14.3278 5.24792L14.3514 5.49158C14.4427 6.43342 14.4883 6.90433 14.2125 7.11368C13.9368 7.32302 13.5222 7.13216 12.6931 6.75042L12.4787 6.65166C12.2431 6.54318 12.1253 6.48895 12.0004 6.48895C11.8755 6.48895 11.7577 6.54318 11.5221 6.65166L11.3076 6.75042C10.4786 7.13216 10.064 7.32302 9.78824 7.11368C9.51247 6.90433 9.55811 6.43342 9.64937 5.49158L9.67299 5.24792C9.69892 4.98028 9.71189 4.84646 9.6733 4.72238C9.63472 4.59829 9.54894 4.498 9.3774 4.2974L9.22123 4.11477C8.61756 3.40887 8.31573 3.05591 8.42106 2.71718C8.5264 2.37845 8.96914 2.27828 9.85462 2.07793L10.0837 2.0261C10.3353 1.96916 10.4612 1.9407 10.5622 1.86401C10.6632 1.78732 10.728 1.6711 10.8576 1.43864L10.9755 1.22702Z" fill="#0341A3"/>
</svg>
