<svg width="24" height="24" viewBox="0 0 24 24" fill="none" xmlns="http://www.w3.org/2000/svg">
<g clip-path="url(#clip0_1187_4751)">
<path d="M0.75 19.5C0.75 20.4829 0.78643 21.1632 0.834265 21.635C0.935185 22.6305 1.73366 23.2006 2.60812 23.2299C2.9517 23.2414 3.40634 23.25 4 23.25C4.59366 23.25 5.0483 23.2414 5.39185 23.2299C6.26635 23.2006 7.0648 22.6305 7.16575 21.635C7.21355 21.1632 7.25 20.4829 7.25 19.5C7.25 18.5171 7.21355 17.8368 7.16575 17.365C7.0648 16.3695 6.26635 15.7994 5.39185 15.7701C5.0483 15.7586 4.59366 15.75 4 15.75C3.40634 15.75 2.9517 15.7586 2.60812 15.7701C1.73366 15.7994 0.935185 16.3695 0.834265 17.365C0.78643 17.8368 0.75 18.5171 0.75 19.5Z" fill="#0341A3"/>
<path d="M16.75 16C16.75 18.8431 16.8159 20.4571 16.8818 21.3629C16.9549 22.3678 17.6891 23.1519 18.7328 23.2158C19.0649 23.2361 19.4815 23.25 20 23.25C20.5185 23.25 20.9351 23.2361 21.2672 23.2158C22.3109 23.1519 23.0451 22.3678 23.1182 21.3629C23.1841 20.4571 23.25 18.8431 23.25 16C23.25 13.1569 23.1841 11.5429 23.1182 10.6371C23.0451 9.6322 22.3109 8.8481 21.2672 8.7842C20.9351 8.7639 20.5185 8.75 20 8.75C19.4815 8.75 19.0649 8.7639 18.7328 8.7842C17.6891 8.8481 16.9549 9.6322 16.8818 10.6371C16.8159 11.5429 16.75 13.1569 16.75 16Z" fill="#0341A3"/>
<path d="M8.75 18C8.75 19.7057 8.7993 20.782 8.85625 21.4587C8.9424 22.4826 9.7264 23.1818 10.7168 23.2253C11.0484 23.2399 11.4696 23.25 12 23.25C12.5304 23.25 12.9516 23.2399 13.2832 23.2253C14.2736 23.1818 15.0576 22.4826 15.1438 21.4587C15.2007 20.782 15.25 19.7057 15.25 18C15.25 16.2943 15.2007 15.218 15.1438 14.5413C15.0576 13.5173 14.2736 12.8182 13.2832 12.7747C12.9516 12.7602 12.5304 12.75 12 12.75C11.4696 12.75 11.0484 12.7602 10.7168 12.7747C9.7264 12.8182 8.9424 13.5173 8.85625 14.5413C8.7993 15.218 8.75 16.2943 8.75 18Z" fill="#0341A3"/>
<path d="M21.0857 0.762324C20.3777 0.732794 18.8861 0.728984 17.1881 1.07729C16.1865 1.28277 15.915 2.48685 16.5793 3.15117L17.4752 4.04707C17.1896 4.30615 16.8212 4.6458 16.4048 5.04255C15.4356 5.96585 14.1903 7.21345 13.1225 8.482C13.109 8.49805 13.0843 8.51305 13.0466 8.512C13.0291 8.5115 13.0166 8.5073 13.0098 8.5039C13.0048 8.5013 13.0014 8.49865 12.9971 8.4927C12.5433 7.8577 11.9425 7.0436 11.3064 6.2567C10.6891 5.49315 9.58515 5.2965 8.74355 5.86705C7.5403 6.6828 5.0419 8.56295 2.24724 11.7589C2.07756 11.953 1.90679 12.1518 1.73515 12.3557C1.37938 12.7781 1.43342 13.4089 1.85585 13.7647C2.27828 14.1205 2.90913 14.0664 3.2649 13.644C3.4285 13.4498 3.59121 13.2603 3.75281 13.0754C6.35995 10.094 8.67915 8.3345 9.79615 7.57C10.3822 8.2981 10.9402 9.05425 11.3698 9.65545C12.169 10.7739 13.8016 10.7809 14.6526 9.76995C15.6529 8.5816 16.839 7.39115 17.7843 6.4906C18.2235 6.0722 18.6072 5.71965 18.8912 5.463L19.8493 6.4212C20.5137 7.0855 21.7177 6.81405 21.9232 5.8124C22.2715 4.11443 22.2677 2.62284 22.2382 1.91478C22.212 1.28706 21.7135 0.788499 21.0857 0.762324Z" fill="#0341A3"/>
</g>
<defs>
<clipPath id="clip0_1187_4751">
<rect width="24" height="24" fill="white"/>
</clipPath>
</defs>
</svg>
